<svg xmlns="http://www.w3.org/2000/svg" fill="none" viewBox="0 0 64 65" height="65" width="64">
<path stroke-width="3.5" stroke="url(#paint0_linear_534_40419)" d="M38.0379 25.9624C43.581 31.5055 47.7292 37.2858 49.9829 42.1005C51.113 44.5148 51.7246 46.5972 51.8508 48.2323C51.9777 49.8755 51.606 50.8271 51.0809 51.3521C50.5559 51.8772 49.6044 52.2489 47.9612 52.122C46.326 51.9957 44.2436 51.3842 41.8293 50.2541C37.0146 48.0004 31.2343 43.8522 25.6912 38.3091C20.1481 32.766 16 26.9857 13.7463 22.1711C12.6162 19.7568 12.0046 17.6743 11.8783 16.0392C11.7514 14.396 12.1232 13.4445 12.6482 12.9194C13.1733 12.3944 14.1248 12.0226 15.768 12.1495C17.4032 12.2758 19.4856 12.8874 21.8999 14.0175C26.7145 16.2711 32.4949 20.4193 38.0379 25.9624Z"></path>
<path stroke-width="3.5" stroke="url(#paint1_linear_534_40419)" d="M38.5303 38.0379C32.9872 43.581 27.2069 47.7292 22.3922 49.9829C19.9779 51.113 17.8955 51.7246 16.2603 51.8508C14.6171 51.9777 13.6656 51.606 13.1405 51.0809C12.6155 50.5559 12.2438 49.6044 12.3707 47.9612C12.4969 46.326 13.1085 44.2436 14.2386 41.8293C16.4923 37.0146 20.6405 31.2343 26.1835 25.6912C31.7266 20.1481 37.507 16 42.3216 13.7463C44.7359 12.6162 46.8183 12.0046 48.4535 11.8783C50.0967 11.7514 51.0482 12.1232 51.5733 12.6482C52.0983 13.1733 52.47 14.1248 52.3431 15.768C52.2169 17.4032 51.6053 19.4856 50.4752 21.8999C48.2215 26.7145 44.0733 32.4949 38.5303 38.0379Z"></path>
<defs>
<linearGradient gradientUnits="userSpaceOnUse" y2="10.7624" x2="18.7678" y1="18.0752" x1="11.1784" id="paint0_linear_534_40419">
<stop stop-color="#26CD89"></stop>
<stop stop-color="#35B1D0" offset="1"></stop>
</linearGradient>
<linearGradient gradientUnits="userSpaceOnUse" y2="39.6973" x2="62.1093" y1="4" x1="45.3999" id="paint1_linear_534_40419">
<stop stop-color="#FF704B" offset="0.253361"></stop>
<stop stop-color="#F82A08" offset="1"></stop>
</linearGradient>
</defs>
</svg>
