<svg xmlns="http://www.w3.org/2000/svg" fill="none" viewBox="0 0 64 64" height="64" width="64">
<path stroke-linejoin="round" stroke-linecap="round" stroke-width="3" stroke="url(#paint0_linear_534_40405)" d="M28.3178 21.0292C28.4428 20.2764 29.0956 19.7236 29.8595 19.7236H33.4609C34.2248 19.7236 34.8775 20.2764 35.0025 21.0292L35.2984 22.8084C35.3859 23.3278 35.7331 23.7611 36.1942 24.0167C36.297 24.0722 36.3984 24.132 36.4998 24.1931C36.9498 24.4653 37.4998 24.55 37.9928 24.3653L39.6831 23.732C40.0295 23.6017 40.4109 23.5986 40.7593 23.7232C41.1078 23.8479 41.4007 24.0921 41.5859 24.4125L43.3859 27.5334C43.5707 27.8538 43.6358 28.2294 43.5697 28.5933C43.5036 28.9572 43.3105 29.2859 43.0248 29.5209L41.6317 30.6695C41.2248 31.0028 41.0234 31.5209 41.0331 32.0472C41.0353 32.1653 41.0353 32.2834 41.0331 32.4014C41.0234 32.9264 41.2248 33.4431 41.6303 33.7764L43.0262 34.9264C43.615 35.4125 43.7678 36.2514 43.3873 36.9125L41.5845 40.0334C41.3996 40.3537 41.107 40.598 40.7588 40.7229C40.4106 40.8478 40.0295 40.8451 39.6831 40.7153L37.9928 40.082C37.4998 39.8972 36.9512 39.982 36.4984 40.2542C36.3977 40.3154 36.2958 40.3747 36.1928 40.432C35.7331 40.6861 35.3859 41.1195 35.2984 41.6389L35.0025 43.4167C34.8775 44.1709 34.2248 44.7236 33.4609 44.7236H29.8581C29.0942 44.7236 28.4414 44.1709 28.3164 43.4181L28.0206 41.6389C27.9345 41.1195 27.5873 40.6861 27.1262 40.4306C27.0232 40.3738 26.9213 40.315 26.8206 40.2542C26.3692 39.982 25.8206 39.8972 25.3262 40.082L23.6359 40.7153C23.2897 40.8452 22.9086 40.8481 22.5605 40.7235C22.2123 40.5989 21.9196 40.3548 21.7345 40.0347L19.9331 36.9139C19.7483 36.5935 19.6832 36.2179 19.7493 35.854C19.8154 35.49 20.0085 35.1613 20.2942 34.9264L21.6887 33.7778C22.0942 33.4445 22.2956 32.9264 22.2859 32.4C22.2837 32.282 22.2837 32.1639 22.2859 32.0459C22.2956 31.5209 22.0942 31.0042 21.6887 30.6709L20.2942 29.5209C20.0089 29.286 19.816 28.9576 19.7499 28.5939C19.6838 28.2303 19.7487 27.855 19.9331 27.5347L21.7345 24.4139C21.9195 24.0933 22.2123 23.8487 22.5608 23.7238C22.9092 23.5989 23.2907 23.6018 23.6373 23.732L25.3262 24.3653C25.8206 24.55 26.3692 24.4653 26.8206 24.1931C26.9206 24.132 27.0234 24.0722 27.1262 24.0153C27.5873 23.7611 27.9345 23.3278 28.0206 22.8084L28.3178 21.0292V21.0292Z"></path>
<path stroke-linejoin="round" stroke-linecap="round" stroke-width="3" stroke="url(#paint1_linear_534_40405)" d="M35.8258 32.2233C35.8258 33.3284 35.3868 34.3882 34.6054 35.1696C33.824 35.951 32.7642 36.39 31.6591 36.39C30.554 36.39 29.4942 35.951 28.7128 35.1696C27.9314 34.3882 27.4924 33.3284 27.4924 32.2233C27.4924 31.1182 27.9314 30.0584 28.7128 29.277C29.4942 28.4956 30.554 28.0566 31.6591 28.0566C32.7642 28.0566 33.824 28.4956 34.6054 29.277C35.3868 30.0584 35.8258 31.1182 35.8258 32.2233V32.2233Z"></path>
<path stroke-linecap="round" stroke-width="4" stroke="url(#paint2_linear_534_40405)" d="M42.7241 6.22363L43.1549 11.8244C43.1943 12.3353 42.841 12.7933 42.3368 12.885L37.7241 13.7236"></path>
<path stroke-linecap="round" stroke-width="4" stroke="url(#paint3_linear_534_40405)" d="M22.6054 58.4685L21.8899 52.897C21.8246 52.3887 22.1541 51.9133 22.653 51.7961L27.2169 50.7236"></path>
<mask fill="white" id="path-5-inside-1_534_40405">
<path d="M41.8608 10.7122C42.2923 9.79372 41.8994 8.69229 40.9512 8.33081C36.4481 6.61423 31.5242 6.2591 26.7983 7.33246C21.4733 8.5419 16.7049 11.4956 13.2504 15.7247C9.79583 19.9537 7.85313 25.2156 7.73074 30.6749C7.62211 35.5199 8.95278 40.274 11.5335 44.3438C12.0769 45.2009 13.2346 45.366 14.0485 44.7599V44.7599C14.8625 44.1538 15.0232 43.0063 14.4911 42.1421C12.3934 38.7351 11.3146 34.7831 11.4048 30.7572C11.5088 26.1169 13.1601 21.6442 16.0965 18.0496C19.0329 14.4549 23.086 11.9442 27.6122 10.9162C31.5391 10.0243 35.6269 10.2928 39.384 11.6683C40.337 12.0172 41.4293 11.6307 41.8608 10.7122V10.7122Z"></path>
</mask>
<path mask="url(#path-5-inside-1_534_40405)" stroke-width="8" stroke="url(#paint4_linear_534_40405)" d="M41.8608 10.7122C42.2923 9.79372 41.8994 8.69229 40.9512 8.33081C36.4481 6.61423 31.5242 6.2591 26.7983 7.33246C21.4733 8.5419 16.7049 11.4956 13.2504 15.7247C9.79583 19.9537 7.85313 25.2156 7.73074 30.6749C7.62211 35.5199 8.95278 40.274 11.5335 44.3438C12.0769 45.2009 13.2346 45.366 14.0485 44.7599V44.7599C14.8625 44.1538 15.0232 43.0063 14.4911 42.1421C12.3934 38.7351 11.3146 34.7831 11.4048 30.7572C11.5088 26.1169 13.1601 21.6442 16.0965 18.0496C19.0329 14.4549 23.086 11.9442 27.6122 10.9162C31.5391 10.0243 35.6269 10.2928 39.384 11.6683C40.337 12.0172 41.4293 11.6307 41.8608 10.7122V10.7122Z"></path>
<mask fill="white" id="path-6-inside-2_534_40405">
<path d="M22.64 53.618C22.2226 54.543 22.6323 55.6383 23.586 55.9852C28.1148 57.6326 33.0436 57.9122 37.7526 56.7666C43.0584 55.4757 47.7809 52.4493 51.1703 48.1678C54.5596 43.8863 56.4215 38.5953 56.4602 33.1348C56.4946 28.2886 55.0913 23.5555 52.4485 19.5257C51.892 18.6771 50.7319 18.5297 49.9274 19.1482V19.1482C49.1228 19.7667 48.9797 20.9165 49.525 21.7725C51.6746 25.1469 52.8139 29.0819 52.7853 33.1087C52.7524 37.7501 51.1698 42.2475 48.2889 45.8868C45.4079 49.526 41.3938 52.0985 36.8838 53.1957C32.971 54.1477 28.8796 53.9419 25.1019 52.6241C24.1437 52.2898 23.0574 52.693 22.64 53.618V53.618Z"></path>
</mask>
<path mask="url(#path-6-inside-2_534_40405)" stroke-width="8" stroke="url(#paint5_linear_534_40405)" d="M22.64 53.618C22.2226 54.543 22.6323 55.6383 23.586 55.9852C28.1148 57.6326 33.0436 57.9122 37.7526 56.7666C43.0584 55.4757 47.7809 52.4493 51.1703 48.1678C54.5596 43.8863 56.4215 38.5953 56.4602 33.1348C56.4946 28.2886 55.0913 23.5555 52.4485 19.5257C51.892 18.6771 50.7319 18.5297 49.9274 19.1482V19.1482C49.1228 19.7667 48.9797 20.9165 49.525 21.7725C51.6746 25.1469 52.8139 29.0819 52.7853 33.1087C52.7524 37.7501 51.1698 42.2475 48.2889 45.8868C45.4079 49.526 41.3938 52.0985 36.8838 53.1957C32.971 54.1477 28.8796 53.9419 25.1019 52.6241C24.1437 52.2898 23.0574 52.693 22.64 53.618V53.618Z"></path>
<defs>
<linearGradient gradientUnits="userSpaceOnUse" y2="43.5696" x2="44.6975" y1="19.7236" x1="19.7241" id="paint0_linear_534_40405">
<stop stop-color="#FF704B" offset="0.253361"></stop>
<stop stop-color="#F82A08" offset="1"></stop>
</linearGradient>
<linearGradient gradientUnits="userSpaceOnUse" y2="36.39" x2="35.8258" y1="28.0566" x1="27.4924" id="paint1_linear_534_40405">
<stop stop-color="#FF704B" offset="0.253361"></stop>
<stop stop-color="#F82A08" offset="1"></stop>
</linearGradient>
<linearGradient gradientUnits="userSpaceOnUse" y2="6.89217" x2="42.0068" y1="6.78839" x1="39.2448" id="paint2_linear_534_40405">
<stop stop-color="#26CD89"></stop>
<stop stop-color="#35B1D0" offset="1"></stop>
</linearGradient>
<linearGradient gradientUnits="userSpaceOnUse" y2="57.7643" x2="23.2877" y1="57.7273" x1="26.0514" id="paint3_linear_534_40405">
<stop stop-color="#26CD89"></stop>
<stop stop-color="#35B1D0" offset="1"></stop>
</linearGradient>
<linearGradient gradientUnits="userSpaceOnUse" y2="16.0985" x2="50.6393" y1="8.22409" x1="27.3236" id="paint4_linear_534_40405">
<stop stop-color="#26CD89"></stop>
<stop stop-color="#35B1D0" offset="1"></stop>
</linearGradient>
<linearGradient gradientUnits="userSpaceOnUse" y2="48.3669" x2="13.78" y1="55.8831" x1="37.2136" id="paint5_linear_534_40405">
<stop stop-color="#26CD89"></stop>
<stop stop-color="#35B1D0" offset="1"></stop>
</linearGradient>
</defs>
</svg>
