<svg xmlns="http://www.w3.org/2000/svg" fill="none" viewBox="0 0 64 64" height="64" width="64">
<path fill="url(#paint0_linear_236_1538)" d="M46.4001 54.3994H40.0001C39.4283 54.3994 38.9001 54.0944 38.6144 53.5994C38.3287 53.1044 38.3287 52.4944 38.6144 51.9994C38.9001 51.5044 39.4284 51.1994 40.0001 51.1994H46.4001C47.6734 51.1994 48.894 50.6937 49.7944 49.7937C50.6944 48.8933 51.2001 47.6726 51.2001 46.3994V39.9994C51.2001 39.4276 51.5051 38.8994 52.0001 38.6137C52.4951 38.328 53.1051 38.328 53.6001 38.6137C54.0951 38.8994 54.4001 39.4276 54.4001 39.9994V46.3994C54.4001 48.5212 53.5573 50.5558 52.0569 52.0562C50.5565 53.5565 48.5219 54.3994 46.4001 54.3994Z"></path>
<path fill="url(#paint1_linear_236_1538)" d="M52.8001 25.5996C52.3758 25.5996 51.9687 25.431 51.6687 25.131C51.3687 24.831 51.2001 24.4239 51.2001 23.9996V17.5996C51.2001 16.3264 50.6944 15.1057 49.7944 14.2053C48.894 13.3053 47.6734 12.7996 46.4001 12.7996H40.0001C39.4283 12.7996 38.9001 12.4946 38.6144 11.9996C38.3287 11.5046 38.3287 10.8946 38.6144 10.3996C38.9001 9.90462 39.4284 9.59961 40.0001 9.59961H46.4001C48.5219 9.59961 50.5566 10.4425 52.0569 11.9428C53.5572 13.4432 54.4001 15.4778 54.4001 17.5996V23.9996C54.4001 24.4239 54.2315 24.831 53.9316 25.131C53.6316 25.431 53.2244 25.5996 52.8001 25.5996Z"></path>
<path fill="url(#paint2_linear_236_1538)" d="M11.2001 25.5996C10.7758 25.5996 10.3687 25.431 10.0687 25.131C9.76867 24.831 9.6001 24.4239 9.6001 23.9996V17.5996C9.6001 15.4778 10.443 13.4432 11.9433 11.9428C13.4437 10.4425 15.4783 9.59961 17.6001 9.59961H24.0001C24.5719 9.59961 25.1001 9.90461 25.3858 10.3996C25.6715 10.8946 25.6715 11.5046 25.3858 11.9996C25.1001 12.4946 24.5719 12.7996 24.0001 12.7996H17.6001C16.3269 12.7996 15.1062 13.3053 14.2058 14.2053C13.3058 15.1057 12.8001 16.3264 12.8001 17.5996V23.9996C12.8001 24.4239 12.6315 24.831 12.3315 25.131C12.0315 25.431 11.6244 25.5996 11.2001 25.5996Z"></path>
<path fill="url(#paint3_linear_236_1538)" d="M24.0001 54.3994H17.6001C15.4783 54.3994 13.4437 53.5565 11.9433 52.0562C10.443 50.5558 9.6001 48.5212 9.6001 46.3994V39.9994C9.6001 39.4276 9.90509 38.8994 10.4001 38.6137C10.8951 38.328 11.5051 38.328 12.0001 38.6137C12.4951 38.8994 12.8001 39.4276 12.8001 39.9994V46.3994C12.8001 47.6726 13.3058 48.8933 14.2058 49.7937C15.1062 50.6937 16.3269 51.1994 17.6001 51.1994H24.0001C24.5719 51.1994 25.1001 51.5044 25.3858 51.9994C25.6715 52.4944 25.6715 53.1044 25.3858 53.5994C25.1001 54.0944 24.5719 54.3994 24.0001 54.3994Z"></path>
<path fill="url(#paint4_linear_236_1538)" d="M28.8001 25.5996H35.2001C36.9672 25.5996 38.4001 27.3667 38.4001 28.7996V35.1996C38.4001 36.9667 36.9672 38.3996 35.2001 38.3996H28.8001C27.033 38.3996 25.6001 36.6325 25.6001 35.1996V28.7996C25.6001 27.0325 27.033 25.5996 28.8001 25.5996Z"></path>
<defs>
<linearGradient gradientUnits="userSpaceOnUse" y2="40.0154" x2="50.8491" y1="39.6042" x1="42.8239" id="paint0_linear_236_1538">
<stop stop-color="#26CD89"></stop>
<stop stop-color="#35B1D0" offset="1"></stop>
</linearGradient>
<linearGradient gradientUnits="userSpaceOnUse" y2="11.2156" x2="50.8491" y1="10.8044" x1="42.8239" id="paint1_linear_236_1538">
<stop stop-color="#26CD89"></stop>
<stop stop-color="#35B1D0" offset="1"></stop>
</linearGradient>
<linearGradient gradientUnits="userSpaceOnUse" y2="11.2156" x2="22.0491" y1="10.8044" x1="14.0239" id="paint2_linear_236_1538">
<stop stop-color="#26CD89"></stop>
<stop stop-color="#35B1D0" offset="1"></stop>
</linearGradient>
<linearGradient gradientUnits="userSpaceOnUse" y2="40.0154" x2="22.0491" y1="39.6042" x1="14.0239" id="paint3_linear_236_1538">
<stop stop-color="#26CD89"></stop>
<stop stop-color="#35B1D0" offset="1"></stop>
</linearGradient>
<linearGradient gradientUnits="userSpaceOnUse" y2="38.3996" x2="38.4001" y1="25.5996" x1="25.6001" id="paint4_linear_236_1538">
<stop stop-color="#FF704B" offset="0.253361"></stop>
<stop stop-color="#F82A08" offset="1"></stop>
</linearGradient>
</defs>
</svg>
