<svg xmlns="http://www.w3.org/2000/svg" fill="none" viewBox="0 0 65 65" height="65" width="65">
<path fill="url(#paint0_linear_218_2628)" d="M18.5623 56.4684C17.1612 56.9916 15.6395 57.1023 14.1775 56.7872C12.7155 56.4721 11.3745 55.7445 10.3134 54.6906C9.5821 53.9683 9.00253 53.1071 8.60871 52.1576C8.21488 51.2082 8.01474 50.1896 8.02004 49.1617C8.0279 48.4393 8.13558 47.7214 8.34004 47.0284C7.56934 45.5871 6.97257 44.0594 6.56226 42.4773C4.92848 44.7308 4.17741 47.5049 4.45119 50.2749C4.72497 53.0448 6.0046 55.6182 8.04793 57.5083C10.0913 59.3983 12.7565 60.4737 15.5393 60.5311C18.3221 60.5884 21.0295 59.6237 23.1489 57.8195C21.5726 57.5493 20.0333 57.0959 18.5623 56.4684ZM33.2289 49.304C30.6604 50.7356 27.6954 51.2914 24.7827 50.8872C21.87 50.4831 19.1684 49.1409 17.0867 47.064C15.0073 44.9916 13.6615 42.297 13.2539 39.3896C12.8464 36.4823 13.3994 33.5215 14.8289 30.9573C14.4396 29.2949 14.2192 27.5974 14.1712 25.8906C11.1461 29.118 9.49536 33.3958 9.56835 37.8187C9.64135 42.2416 11.4323 46.4626 14.5623 49.5884C17.7007 52.7084 21.9254 54.4919 26.3501 54.5648C30.7749 54.6377 35.0561 52.9944 38.2956 49.9795C36.5885 49.9232 34.8912 49.6969 33.2289 49.304Z"></path>
<path fill="url(#paint1_linear_218_2628)" d="M39.0067 46.6902C34.031 46.6828 29.2116 44.9506 25.3696 41.7888C21.5276 38.627 18.9005 34.231 17.9358 29.3497C16.9711 24.4683 17.7284 19.4035 20.0788 15.0179C22.4293 10.6322 26.2273 7.19702 30.8262 5.29737C35.4251 3.39772 40.5403 3.15111 45.3006 4.59955C50.0609 6.04798 54.1718 9.10188 56.9332 13.2411C59.6946 17.3803 60.9357 22.3488 60.445 27.3003C59.9543 32.2518 57.7623 36.8801 54.2423 40.3968C52.2407 42.3952 49.8649 43.9796 47.2507 45.0594C44.6365 46.1393 41.8352 46.6934 39.0067 46.6902ZM39.0067 7.20573C36.6449 7.20339 34.3058 7.66656 32.1232 8.56876C29.9405 9.47096 27.957 10.7945 26.2862 12.4637C24.6153 14.1329 23.2898 16.1151 22.3855 18.2969C21.4811 20.4786 21.0156 22.8173 21.0156 25.1791C21.016 27.5432 21.4878 29.8835 22.4036 32.063C23.3194 34.2425 24.6606 36.2175 26.3489 37.8724C29.7228 41.2454 34.2982 43.1402 39.0689 43.1402C43.8397 43.1402 48.4151 41.2454 51.7889 37.8724C54.3016 35.3536 56.0102 32.1457 56.6983 28.655C57.3863 25.1644 57.023 21.5481 55.6542 18.2641C54.2854 14.9801 51.9728 12.1763 49.0092 10.2077C46.0456 8.23911 42.5645 7.19434 39.0067 7.20573Z"></path>
<defs>
<linearGradient gradientUnits="userSpaceOnUse" y2="29.3519" x2="30.7739" y1="28.4993" x1="13.7688" id="paint0_linear_218_2628">
<stop stop-color="#26CD89"></stop>
<stop stop-color="#35B1D0" offset="1"></stop>
</linearGradient>
<linearGradient gradientUnits="userSpaceOnUse" y2="46.6903" x2="60.5498" y1="3.66797" x1="17.5276" id="paint1_linear_218_2628">
<stop stop-color="#FF704B" offset="0.253361"></stop>
<stop stop-color="#F82A08" offset="1"></stop>
</linearGradient>
</defs>
</svg>
