<svg width="734" height="659" viewBox="0 0 734 659" fill="none" xmlns="http://www.w3.org/2000/svg">
<path d="M494.288 549.183C452.012 585.083 399.808 607.262 344.619 612.769C289.43 618.276 233.873 606.851 185.336 580.012C136.8 553.173 97.5847 512.193 72.9069 462.523C48.2291 412.853 39.2583 356.847 47.1876 301.954C55.117 247.061 79.5708 195.883 117.296 155.227C155.022 114.571 204.231 86.3645 258.379 74.3586C312.527 62.3527 369.046 67.1167 420.42 88.017C471.794 108.917 515.588 144.963 545.976 191.36L540.186 195.153C510.568 149.931 467.884 114.799 417.812 94.4281C367.74 74.0575 312.653 69.4142 259.877 81.1158C207.102 92.8174 159.139 120.309 122.37 159.935C85.6003 199.56 61.7663 249.442 54.0379 302.943C46.3094 356.445 55.0529 411.032 79.1054 459.444C103.158 507.855 141.379 547.796 188.686 573.955C235.992 600.114 290.142 611.25 343.932 605.882C397.722 600.515 448.603 578.898 489.808 543.907L494.288 549.183Z" fill="#8AE7C1" fill-opacity="0.96" stroke="url(#paint0_linear_392_30301)" stroke-width="10" stroke-linejoin="round"/>
<path d="M535.071 471.762C504.974 521.942 458.409 560.134 403.31 579.831C348.21 599.528 287.986 599.51 232.898 579.781C177.811 560.053 131.268 521.833 101.2 471.636C71.1327 421.438 59.4007 362.367 68.0034 304.489C76.606 246.611 105.011 193.506 148.378 154.223C191.746 114.94 247.392 91.9096 305.837 89.0555C364.281 86.2013 421.907 103.7 468.896 138.571C515.884 173.441 549.328 223.525 563.53 280.29L557.312 281.845C543.471 226.519 510.874 177.704 465.076 143.718C419.278 109.731 363.112 92.6755 306.149 95.4573C249.186 98.2391 194.95 120.686 152.681 158.974C110.413 197.261 82.7277 249.02 74.3431 305.431C65.9585 361.843 77.3932 419.416 106.699 468.342C136.004 517.268 181.368 554.519 235.06 573.747C288.751 592.976 347.449 592.993 401.152 573.796C454.855 554.598 500.24 517.374 529.574 468.465L535.071 471.762Z" fill="#02394A" fill-opacity="0.96" stroke="#02394A" stroke-width="2" stroke-linejoin="round"/>
<path d="M448.352 529.475C404.855 559.64 352.244 573.791 299.484 569.515C246.724 565.239 197.079 542.801 159.008 506.025C120.936 469.249 96.7941 420.41 90.6949 367.829C84.5957 315.249 96.9168 262.18 125.559 217.666C154.201 173.151 197.392 139.945 247.772 123.705C298.152 107.465 352.605 109.196 401.852 128.604C451.099 148.011 492.093 183.894 517.85 230.138C543.606 276.381 552.532 330.126 543.105 382.213L537.399 381.18C546.587 330.413 537.888 278.031 512.784 232.959C487.68 187.887 447.725 152.913 399.726 133.998C351.727 115.082 298.654 113.395 249.551 129.224C200.447 145.052 158.351 177.417 130.435 220.803C102.519 264.19 90.5098 315.913 96.4544 367.161C102.399 418.409 125.929 466.011 163.036 501.855C200.143 537.699 248.53 559.568 299.953 563.735C351.376 567.903 402.653 554.111 445.047 524.711L448.352 529.475Z" fill="#02394A" fill-opacity="0.96" stroke="#02394A" stroke-width="2"/>
<path d="M382.713 538.697C336.98 553.78 287.431 552.538 242.51 535.184C197.59 517.83 160.076 485.437 136.361 443.525C112.646 401.613 104.197 352.774 112.454 305.331C120.711 257.887 145.162 214.775 181.643 183.339C218.123 151.903 264.375 134.088 312.518 132.931C360.66 131.773 407.715 147.344 445.664 176.991C483.613 206.638 510.108 248.525 520.636 295.517C531.163 342.509 525.071 391.697 503.398 434.701L498.687 432.326C519.811 390.413 525.749 342.471 515.488 296.67C505.228 250.869 479.404 210.043 442.416 181.148C405.429 152.253 359.567 137.076 312.644 138.204C265.722 139.332 220.642 156.695 185.086 187.335C149.53 217.974 125.698 259.994 117.65 306.235C109.603 352.476 117.838 400.077 140.952 440.927C164.066 481.778 200.629 513.349 244.411 530.264C288.194 547.178 336.487 548.388 381.061 533.688L382.713 538.697Z" fill="#02394A" fill-opacity="0.96" stroke="#02394A" stroke-width="2"/>
<path d="M268.256 524.01C226.159 512.374 189.4 486.501 164.241 450.8C139.082 415.098 127.08 371.778 130.28 328.22C133.481 284.662 151.685 243.561 181.792 211.921C211.899 180.28 252.045 160.058 295.391 154.699C338.736 149.34 382.599 159.176 419.505 182.532C456.411 205.887 484.077 241.317 497.789 282.784C511.501 324.251 510.411 369.19 494.704 409.943C478.998 450.697 449.646 484.743 411.651 506.282L409.292 502.12C446.324 481.127 474.932 447.944 490.24 408.223C505.549 368.502 506.612 324.702 493.247 284.286C479.882 243.87 452.917 209.338 416.946 186.574C380.976 163.811 338.225 154.224 295.978 159.447C253.731 164.67 214.602 184.38 185.258 215.219C155.914 246.057 138.171 286.117 135.052 328.571C131.932 371.025 143.63 413.247 168.151 448.044C192.673 482.84 228.501 508.057 269.531 519.399L268.256 524.01Z" fill="#02394A" fill-opacity="0.96" stroke="#02394A" stroke-width="2"/>
<path d="M729 1C741.833 162.333 690.8 506 404 592" stroke="#8AE7C1" stroke-width="5"/>
<path d="M706.519 2.5C733.282 139.717 712.046 450.021 413 593.5" stroke="#8AE7C1" stroke-width="5"/>
<path d="M685.419 2.5C715.833 133.833 709 444 410.5 595" stroke="#8AE7C1" stroke-width="5"/>
<path d="M661.5 2.5C694.697 137.219 692.747 446.026 420 595.5" stroke="#8AE7C1" stroke-width="5"/>
<path d="M641.5 3C674.697 137.719 697.747 433.526 425 583" stroke="#8AE7C1" stroke-width="5"/>
<path d="M619.283 3C652.471 137.374 692.667 436.91 420 586" stroke="#8AE7C1" stroke-width="5"/>
<path d="M319 172.5C224.559 172.5 148 249.059 148 343.5C179.333 321.5 249.8 292.1 319 318.5C388.2 344.9 458.5 364 490 343.5C490 249.059 413.441 172.5 319 172.5Z" fill="#02394A" fill-opacity="0.96"/>
<path d="M319 510.57C413.441 510.57 490 435.354 490 342.57C417 356.499 385.894 336.717 313.5 314.999C233.5 290.999 161.5 333.499 148 342.57C148 435.354 224.559 510.57 319 510.57Z" fill="#132332"/>
<mask id="mask0_392_30301" style="mask-type:alpha" maskUnits="userSpaceOnUse" x="204" y="307" width="231" height="64">
<path fill-rule="evenodd" clip-rule="evenodd" d="M204 339.109V370.719H209.827H215.653V363.023V355.328L223.998 348.17C228.588 344.233 232.673 341.116 233.076 341.242C233.479 341.369 238.89 348.052 245.099 356.095L256.39 370.719H263.384H270.378L280.451 352.173C285.992 341.972 290.756 333.391 291.038 333.104C291.32 332.816 296.167 341.089 301.81 351.489L312.069 370.396L318.766 370.581C322.57 370.687 325.36 370.515 325.226 370.183C323.534 366.012 291.418 308.193 291.008 308.581C290.699 308.873 284.377 320.289 276.961 333.949C269.544 347.609 263.281 358.978 263.043 359.214C262.518 359.733 242.73 334.166 242.73 332.969C242.73 332.319 254.41 321.941 271.121 307.743C271.278 307.609 267.422 307.501 262.552 307.503L253.698 307.507L235.311 323.308C225.198 331.999 216.638 339.109 216.289 339.109C215.916 339.109 215.653 332.579 215.653 323.305V307.5H209.827H204V339.109ZM312.307 313.306V319.112H326.017H339.727V344.915V370.719H345.896H352.066V344.915V319.112H365.775H379.485V313.306V307.5H345.896H312.307V313.306ZM395.522 317.029C392.844 321.9 385.189 335.972 378.511 348.302L366.368 370.719L373.099 370.709L379.828 370.7L390.11 351.691C395.766 341.236 400.547 332.683 400.735 332.685C400.924 332.688 405.703 341.245 411.356 351.704L421.634 370.719H428.309H434.982L424.341 351.205C418.488 340.473 410.863 326.393 407.397 319.918C403.931 313.443 400.937 308.152 400.744 308.159C400.551 308.166 398.201 312.158 395.522 317.029Z" fill="#F82A08"/>
</mask>
<g mask="url(#mask0_392_30301)">
<g opacity="0.78">
<g style="mix-blend-mode:color-burn">
<rect width="886.238" height="496.345" transform="matrix(-0.999837 0.0180749 -0.0204086 -0.999792 770.421 651.312)" fill="#F82A08"/>
<path d="M741.809 289.91C741.809 289.91 660.35 209.991 570.508 224.779C480.665 239.568 397.558 277.658 303.269 225.903C208.98 174.148 131.296 177.736 59.441 203.605C-12.4135 229.473 -62.2209 205.223 -62.2209 205.223L-97.7816 564.045L696.678 633.73L741.809 289.91Z" fill="#F82A08"/>
</g>
<path d="M741.809 289.911C741.809 289.911 660.35 209.992 570.508 224.781C480.665 239.57 397.558 277.66 303.269 225.905C208.98 174.15 131.296 177.738 59.441 203.606C-12.4135 229.475 -62.2209 205.225 -62.2209 205.225L-97.7816 564.047L696.678 633.731L741.809 289.911Z" fill="#F82A08"/>
<g style="mix-blend-mode:color-burn" opacity="0.5">
<rect width="854.912" height="459.797" transform="matrix(-0.999744 0.022197 -0.0157399 -0.999865 794.231 620.367)" fill="#F82A08"/>
<path d="M-32.0043 611.958L-38.3962 205.915C-38.3962 205.915 46.4994 265.294 142.366 250.107C238.233 234.92 225.681 209.048 401.22 272.524C576.759 335.999 622.175 204.256 759.676 236.401L765.31 594.256L-32.0043 611.958Z" fill="#F82A08"/>
</g>
<path d="M-32.005 611.958L-38.3969 205.915C-38.3969 205.915 46.4987 265.293 142.366 250.107C238.233 234.92 225.68 209.048 401.219 272.524C576.758 335.999 622.174 204.256 759.675 236.401L765.309 594.256L-32.005 611.958Z" fill="#F82A08"/>
<g style="mix-blend-mode:color-burn" opacity="0.3">
<rect width="832.83" height="446.082" transform="matrix(-0.999837 0.0180749 -0.0204086 -0.999792 735.569 661.369)" fill="#F82A08"/>
<path d="M677.274 622.865L685.347 282.307C685.347 282.307 668.839 260.329 624.013 265.036C579.187 269.742 515.341 399.26 426.81 365.404C338.278 331.547 322.387 234.278 210.771 273.37C99.1558 312.463 17.2436 355.92 -49.2372 331.012L-55.7436 607.619L677.274 622.865Z" fill="#F82A08"/>
</g>
<path d="M677.273 622.865L685.346 282.307C685.346 282.307 668.838 260.329 624.012 265.036C579.186 269.742 515.34 399.26 426.809 365.404C338.277 331.547 322.386 234.278 210.77 273.37C99.1548 312.463 17.2426 355.92 -49.2382 331.012L-55.7446 607.619L677.273 622.865Z" fill="#F82A08"/>
<g style="mix-blend-mode:color-burn" opacity="0.5">
<rect width="892.914" height="422.521" transform="matrix(-0.999837 0.0180749 -0.0204086 -0.999792 744.073 669.068)" fill="#F82A08"/>
<path d="M674.75 368.336C650.773 338.654 598.963 316.058 515.205 365.58C431.447 415.103 389.559 383.844 359.766 344.826C329.973 305.808 289.591 294.331 149.441 367.48C9.29051 440.628 -10.3798 405.197 -60.5584 406.104C-110.737 407.011 -81.7509 624.851 -81.7509 624.851L678.587 611.106L674.75 368.336Z" fill="#F82A08"/>
</g>
<path d="M674.75 368.336C650.773 338.654 598.963 316.058 515.205 365.58C431.447 415.103 389.559 383.844 359.766 344.826C329.973 305.808 289.591 294.331 149.441 367.48C9.29051 440.628 -10.3798 405.197 -60.5584 406.104C-110.737 407.011 -81.7509 624.851 -81.7509 624.851L678.587 611.106L674.75 368.336Z" fill="#F82A08"/>
</g>
</g>
<mask id="mask1_392_30301" style="mask-type:alpha" maskUnits="userSpaceOnUse" x="204" y="307" width="231" height="64">
<path fill-rule="evenodd" clip-rule="evenodd" d="M204 339.109V370.719H209.827H215.653V363.023V355.328L223.998 348.17C228.588 344.233 232.673 341.116 233.076 341.242C233.479 341.369 238.89 348.052 245.099 356.095L256.39 370.719H263.384H270.378L280.451 352.173C285.992 341.972 290.756 333.391 291.038 333.104C291.32 332.816 296.167 341.089 301.81 351.489L312.069 370.396L318.766 370.581C322.57 370.687 325.36 370.515 325.226 370.183C323.534 366.012 291.418 308.193 291.008 308.581C290.699 308.873 284.377 320.289 276.961 333.949C269.544 347.609 263.281 358.978 263.043 359.214C262.518 359.733 242.73 334.166 242.73 332.969C242.73 332.319 254.41 321.941 271.121 307.743C271.278 307.609 267.422 307.501 262.552 307.503L253.698 307.507L235.311 323.308C225.198 331.999 216.638 339.109 216.289 339.109C215.916 339.109 215.653 332.579 215.653 323.305V307.5H209.827H204V339.109ZM312.307 313.306V319.112H326.017H339.727V344.915V370.719H345.896H352.066V344.915V319.112H365.775H379.485V313.306V307.5H345.896H312.307V313.306ZM395.522 317.029C392.844 321.9 385.189 335.972 378.511 348.302L366.368 370.719L373.099 370.709L379.828 370.7L390.11 351.691C395.766 341.236 400.547 332.683 400.735 332.685C400.924 332.688 405.703 341.245 411.356 351.704L421.634 370.719H428.309H434.982L424.341 351.205C418.488 340.473 410.863 326.393 407.397 319.918C403.931 313.443 400.937 308.152 400.744 308.159C400.551 308.166 398.201 312.158 395.522 317.029Z" fill="#F82A08"/>
</mask>
<g mask="url(#mask1_392_30301)">
<g opacity="0.78">
<g style="mix-blend-mode:color-burn">
<rect width="886.238" height="496.345" transform="matrix(-0.999837 0.0180749 -0.0204086 -0.999792 770.421 651.312)" fill="#F82A08"/>
<path d="M741.809 289.91C741.809 289.91 660.35 209.991 570.508 224.779C480.665 239.568 397.558 277.658 303.269 225.903C208.98 174.148 131.296 177.736 59.441 203.605C-12.4135 229.473 -62.2209 205.223 -62.2209 205.223L-97.7816 564.045L696.678 633.73L741.809 289.91Z" fill="#F82A08"/>
</g>
<path d="M741.809 289.911C741.809 289.911 660.35 209.992 570.508 224.781C480.665 239.57 397.558 277.66 303.269 225.905C208.98 174.15 131.296 177.738 59.441 203.606C-12.4135 229.475 -62.2209 205.225 -62.2209 205.225L-97.7816 564.047L696.678 633.731L741.809 289.911Z" fill="#F82A08"/>
<g style="mix-blend-mode:color-burn" opacity="0.5">
<rect width="854.912" height="459.797" transform="matrix(-0.999744 0.022197 -0.0157399 -0.999865 794.231 620.367)" fill="#F82A08"/>
<path d="M-32.0043 611.958L-38.3962 205.915C-38.3962 205.915 46.4994 265.294 142.366 250.107C238.233 234.92 225.681 209.048 401.22 272.524C576.759 335.999 622.175 204.256 759.676 236.401L765.31 594.256L-32.0043 611.958Z" fill="#F82A08"/>
</g>
<path d="M-32.005 611.958L-38.3969 205.915C-38.3969 205.915 46.4987 265.293 142.366 250.107C238.233 234.92 225.68 209.048 401.219 272.524C576.758 335.999 622.174 204.256 759.675 236.401L765.309 594.256L-32.005 611.958Z" fill="#F82A08"/>
<g style="mix-blend-mode:color-burn" opacity="0.3">
<rect width="832.83" height="446.082" transform="matrix(-0.999837 0.0180749 -0.0204086 -0.999792 735.569 661.369)" fill="#F82A08"/>
<path d="M677.274 622.865L685.347 282.307C685.347 282.307 668.839 260.329 624.013 265.036C579.187 269.742 515.341 399.26 426.81 365.404C338.278 331.547 322.387 234.278 210.771 273.37C99.1558 312.463 17.2436 355.92 -49.2372 331.012L-55.7436 607.619L677.274 622.865Z" fill="#F82A08"/>
</g>
<path d="M677.273 622.865L685.346 282.307C685.346 282.307 668.838 260.329 624.012 265.036C579.186 269.742 515.34 399.26 426.809 365.404C338.277 331.547 322.386 234.278 210.77 273.37C99.1548 312.463 17.2426 355.92 -49.2382 331.012L-55.7446 607.619L677.273 622.865Z" fill="#F82A08"/>
<g style="mix-blend-mode:color-burn" opacity="0.5">
<rect width="892.914" height="422.521" transform="matrix(-0.999837 0.0180749 -0.0204086 -0.999792 744.073 669.068)" fill="#F82A08"/>
<path d="M674.75 368.336C650.773 338.654 598.963 316.058 515.205 365.58C431.447 415.103 389.559 383.844 359.766 344.826C329.973 305.808 289.591 294.331 149.441 367.48C9.29051 440.628 -10.3798 405.197 -60.5584 406.104C-110.737 407.011 -81.7509 624.851 -81.7509 624.851L678.587 611.106L674.75 368.336Z" fill="#F82A08"/>
</g>
<path d="M674.75 368.336C650.773 338.654 598.963 316.058 515.205 365.58C431.447 415.103 389.559 383.844 359.766 344.826C329.973 305.808 289.591 294.331 149.441 367.48C9.29051 440.628 -10.3798 405.197 -60.5584 406.104C-110.737 407.011 -81.7509 624.851 -81.7509 624.851L678.587 611.106L674.75 368.336Z" fill="#F82A08"/>
</g>
</g>
<defs>
<linearGradient id="paint0_linear_392_30301" x1="268.728" y1="72.2729" x2="366.272" y2="609.729" gradientUnits="userSpaceOnUse">
<stop offset="0.180048" stop-color="#02394A" stop-opacity="0.96"/>
<stop offset="1" stop-color="#8AE7C1"/>
</linearGradient>
</defs>
</svg>
