<svg xmlns="http://www.w3.org/2000/svg" fill="none" viewBox="0 0 451 451" height="451" width="451">
<circle stroke-width="2" stroke="#80CDE0" fill-opacity="0.14" fill="#CCEBF3" r="224.5" cy="225.5" cx="225.5"></circle>
<circle stroke-width="2" stroke="#80CDE0" fill-opacity="0.14" fill="#CCEBF3" r="156.286" cy="226.064" cx="224.937"></circle>
<circle stroke-width="2" stroke="#80CDE0" fill-opacity="0.14" fill="#CCEBF3" r="77.925" cy="226.627" cx="224.372"></circle>
<path fill="#3BD39D" d="M286.128 279.269C285.312 279.411 284.765 280.187 284.907 281.004L287.217 294.305C287.358 295.121 288.135 295.668 288.951 295.526C289.767 295.384 290.314 294.608 290.172 293.791L288.119 281.968L299.942 279.915C300.759 279.773 301.305 278.997 301.164 278.181C301.022 277.364 300.245 276.818 299.429 276.959L286.128 279.269ZM397.136 360.022C397.953 359.881 398.499 359.104 398.358 358.288L396.048 344.987C395.906 344.171 395.13 343.624 394.313 343.766C393.497 343.907 392.95 344.684 393.092 345.5L395.145 357.323L383.322 359.376C382.506 359.518 381.959 360.295 382.101 361.111C382.243 361.927 383.019 362.474 383.835 362.332L397.136 360.022ZM285.521 281.974L396.016 359.771L397.743 357.318L287.248 279.521L285.521 281.974Z"></path>
<path fill="#3BD39D" d="M286.128 175.113C285.312 174.971 284.765 174.194 284.907 173.378L287.217 160.077C287.358 159.261 288.135 158.714 288.951 158.856C289.767 158.998 290.314 159.774 290.172 160.59L288.119 172.414L299.942 174.467C300.759 174.608 301.305 175.385 301.164 176.201C301.022 177.017 300.245 177.564 299.429 177.422L286.128 175.113ZM397.136 94.3594C397.953 94.5011 398.499 95.2777 398.358 96.0939L396.048 109.395C395.906 110.211 395.13 110.758 394.313 110.616C393.497 110.474 392.95 109.698 393.092 108.882L395.145 97.0585L383.322 95.0054C382.506 94.8637 381.959 94.0871 382.101 93.2709C382.243 92.4547 383.019 91.9079 383.835 92.0496L397.136 94.3594ZM285.521 172.408L396.016 94.6108L397.743 97.0638L287.248 174.861L285.521 172.408Z"></path>
<path fill="#3BD39D" d="M163.753 282.654C164.568 282.801 165.11 283.581 164.962 284.397L162.562 297.681C162.414 298.497 161.634 299.038 160.819 298.891C160.003 298.743 159.462 297.963 159.609 297.148L161.743 285.339L149.935 283.205C149.12 283.058 148.578 282.277 148.725 281.462C148.873 280.647 149.653 280.106 150.468 280.253L163.753 282.654ZM52.7246 362.276C51.9093 362.129 51.3679 361.348 51.5152 360.533L53.9161 347.248C54.0634 346.433 54.8437 345.892 55.659 346.039C56.4742 346.186 57.0156 346.967 56.8683 347.782L54.7342 359.591L66.5429 361.725C67.3581 361.872 67.8995 362.652 67.7522 363.468C67.6049 364.283 66.8246 364.824 66.0094 364.677L52.7246 362.276ZM164.341 285.362L53.8464 362.032L52.1362 359.567L162.631 282.898L164.341 285.362Z"></path>
<path fill="#3BD39D" d="M163.743 175.113C164.559 174.971 165.106 174.194 164.964 173.378L162.654 160.077C162.513 159.261 161.736 158.714 160.92 158.856C160.104 158.998 159.557 159.774 159.699 160.59L161.752 172.414L149.929 174.467C149.113 174.608 148.566 175.385 148.708 176.201C148.849 177.017 149.626 177.564 150.442 177.422L163.743 175.113ZM52.7347 94.3594C51.9185 94.5011 51.3717 95.2777 51.5134 96.0939L53.8232 109.395C53.9649 110.211 54.7415 110.758 55.5577 110.616C56.3739 110.474 56.9207 109.698 56.7789 108.882L54.7258 97.0585L66.5489 95.0054C67.3651 94.8637 67.9119 94.0871 67.7701 93.2709C67.6284 92.4547 66.8518 91.9079 66.0356 92.0496L52.7347 94.3594ZM164.35 172.408L53.8549 94.6108L52.1278 97.0638L162.623 174.861L164.35 172.408Z"></path>
<path fill="#3BD39D" d="M233.324 3.44911C232.739 2.86332 231.789 2.86332 231.203 3.44911L221.657 12.995C221.071 13.5808 221.071 14.5306 221.657 15.1164C222.243 15.7022 223.193 15.7022 223.778 15.1164L232.264 6.63109L240.749 15.1164C241.335 15.7022 242.284 15.7022 242.87 15.1164C243.456 14.5306 243.456 13.5808 242.87 12.995L233.324 3.44911ZM231.203 67.5829C231.789 68.1687 232.739 68.1687 233.324 67.5829L242.87 58.037C243.456 57.4512 243.456 56.5014 242.87 55.9157C242.284 55.3299 241.335 55.3299 240.749 55.9157L232.264 64.4009L223.778 55.9157C223.193 55.3299 222.243 55.3299 221.657 55.9157C221.071 56.5014 221.071 57.4512 221.657 58.037L231.203 67.5829ZM230.764 4.50977V66.5223H233.764V4.50977H230.764Z"></path>
<path fill="#3BD39D" d="M305.619 223.311C305.033 223.897 305.033 224.847 305.619 225.433L315.165 234.979C315.751 235.564 316.701 235.564 317.286 234.979C317.872 234.393 317.872 233.443 317.286 232.857L308.801 224.372L317.286 215.887C317.872 215.301 317.872 214.351 317.286 213.765C316.701 213.18 315.751 213.18 315.165 213.765L305.619 223.311ZM379.9 225.433C380.486 224.847 380.486 223.897 379.9 223.311L370.354 213.765C369.769 213.18 368.819 213.18 368.233 213.765C367.647 214.351 367.647 215.301 368.233 215.887L376.718 224.372L368.233 232.857C367.647 233.443 367.647 234.393 368.233 234.979C368.819 235.564 369.769 235.564 370.354 234.979L379.9 225.433ZM306.68 225.872L378.84 225.872V222.872L306.68 222.872V225.872Z"></path>
<path fill="#3BD39D" d="M69.9706 223.311C69.3848 223.897 69.3848 224.847 69.9706 225.433L79.5165 234.979C80.1023 235.564 81.0521 235.564 81.6379 234.979C82.2236 234.393 82.2236 233.443 81.6379 232.857L73.1526 224.372L81.6379 215.887C82.2236 215.301 82.2236 214.351 81.6379 213.765C81.0521 213.18 80.1023 213.18 79.5165 213.765L69.9706 223.311ZM144.252 225.433C144.838 224.847 144.838 223.897 144.252 223.311L134.706 213.765C134.12 213.18 133.17 213.18 132.585 213.765C131.999 214.351 131.999 215.301 132.585 215.887L141.07 224.372L132.585 232.857C131.999 233.443 131.999 234.393 132.585 234.979C133.17 235.564 134.12 235.564 134.706 234.979L144.252 225.433ZM71.0312 225.872L143.191 225.872V222.872L71.0312 222.872V225.872Z"></path>
<path fill="#3BD39D" d="M292.466 373.629C291.685 373.351 290.827 373.759 290.55 374.539L286.024 387.258C285.746 388.038 286.154 388.896 286.934 389.174C287.715 389.452 288.573 389.044 288.85 388.264L292.873 376.958L304.179 380.981C304.959 381.259 305.817 380.851 306.095 380.071C306.373 379.29 305.965 378.432 305.185 378.155L292.466 373.629ZM314.634 425.231C315.414 425.509 316.272 425.102 316.55 424.321L321.076 411.602C321.353 410.822 320.946 409.964 320.165 409.686C319.385 409.408 318.527 409.816 318.249 410.597L314.226 421.902L302.921 417.879C302.14 417.601 301.282 418.009 301.005 418.79C300.727 419.57 301.135 420.428 301.915 420.706L314.634 425.231ZM290.608 375.686L313.782 424.462L316.492 423.174L293.318 374.398L290.608 375.686Z"></path>
<path fill="#3BD39D" d="M157.617 375.872C157.333 375.093 156.472 374.692 155.694 374.975L143.008 379.592C142.23 379.876 141.828 380.737 142.112 381.515C142.395 382.294 143.256 382.695 144.034 382.412L155.311 378.307L159.415 389.584C159.698 390.362 160.559 390.763 161.337 390.48C162.116 390.197 162.517 389.336 162.234 388.558L157.617 375.872ZM131.976 425.84C132.259 426.618 133.12 427.019 133.898 426.736L146.584 422.119C147.362 421.836 147.764 420.975 147.48 420.196C147.197 419.418 146.336 419.016 145.558 419.3L134.282 423.404L130.177 412.128C129.894 411.349 129.033 410.948 128.255 411.231C127.476 411.515 127.075 412.375 127.358 413.154L131.976 425.84ZM154.848 375.751L132.026 424.693L134.745 425.961L157.566 377.019L154.848 375.751Z"></path>
<path fill="#017B9A" d="M210.984 218.935V234.321H208.588V218.935H210.984Z"></path>
<path fill="#017B9A" d="M213.332 226.595C213.332 225.089 213.661 223.739 214.32 222.543C214.993 221.348 215.897 220.418 217.032 219.754C218.181 219.075 219.435 218.735 220.795 218.735C222.351 218.735 223.731 219.141 224.936 219.953C226.156 220.75 227.039 221.886 227.585 223.362H224.705C224.327 222.551 223.801 221.945 223.128 221.547C222.456 221.148 221.678 220.949 220.795 220.949C219.828 220.949 218.966 221.178 218.209 221.636C217.452 222.093 216.857 222.75 216.422 223.606C216.002 224.462 215.792 225.458 215.792 226.595C215.792 227.731 216.002 228.727 216.422 229.583C216.857 230.439 217.452 231.104 218.209 231.576C218.966 232.033 219.828 232.262 220.795 232.262C221.678 232.262 222.456 232.063 223.128 231.664C223.801 231.266 224.327 230.661 224.705 229.849H227.585C227.039 231.325 226.156 232.461 224.936 233.258C223.731 234.055 222.351 234.454 220.795 234.454C219.421 234.454 218.167 234.122 217.032 233.458C215.897 232.779 214.993 231.842 214.32 230.646C213.661 229.451 213.332 228.1 213.332 226.595Z"></path>
<path fill="#017B9A" d="M234.595 234.52C233.684 234.52 232.864 234.351 232.135 234.011C231.42 233.657 230.853 233.185 230.432 232.594C230.012 231.989 229.788 231.318 229.76 230.58H232.24C232.282 231.096 232.513 231.532 232.934 231.886C233.368 232.225 233.908 232.395 234.553 232.395C235.225 232.395 235.744 232.262 236.108 231.997C236.487 231.716 236.676 231.362 236.676 230.934C236.676 230.476 236.466 230.137 236.045 229.915C235.639 229.694 234.987 229.451 234.09 229.185C233.221 228.934 232.513 228.69 231.967 228.454C231.42 228.218 230.944 227.857 230.537 227.37C230.145 226.882 229.949 226.24 229.949 225.443C229.949 224.794 230.131 224.204 230.495 223.672C230.86 223.126 231.378 222.698 232.051 222.388C232.738 222.078 233.523 221.923 234.405 221.923C235.723 221.923 236.781 222.278 237.58 222.986C238.393 223.68 238.827 224.632 238.883 225.842H236.487C236.445 225.296 236.234 224.86 235.856 224.536C235.478 224.211 234.966 224.049 234.321 224.049C233.691 224.049 233.207 224.174 232.871 224.425C232.535 224.676 232.366 225.008 232.366 225.421C232.366 225.746 232.478 226.019 232.703 226.24C232.927 226.462 233.2 226.639 233.523 226.772C233.845 226.89 234.321 227.045 234.952 227.237C235.793 227.473 236.48 227.716 237.012 227.967C237.559 228.203 238.028 228.558 238.421 229.03C238.813 229.502 239.016 230.129 239.03 230.912C239.03 231.605 238.848 232.225 238.484 232.771C238.119 233.317 237.601 233.745 236.928 234.055C236.269 234.365 235.492 234.52 234.595 234.52Z"></path>
<path fill="#017B9A" d="M181.344 329.416V343.744H178.914V333.931L174.396 343.744H172.712L168.172 333.931V343.744H165.742V329.416H168.364L173.564 340.651L178.744 329.416H181.344Z"></path>
<path fill="#017B9A" d="M193.468 340.816H187.266L186.2 343.744H183.664L188.971 329.395H191.784L197.092 343.744H194.534L193.468 340.816ZM192.786 338.899L190.378 332.24L187.948 338.899H192.786Z"></path>
<path fill="#017B9A" d="M211.569 343.744H209.14L201.829 333.044V343.744H199.399V329.395H201.829L209.14 340.074V329.395H211.569V343.744Z"></path>
<path fill="#017B9A" d="M223.691 340.816H217.488L216.423 343.744H213.886L219.193 329.395H222.007L227.314 343.744H224.756L223.691 340.816ZM223.009 338.899L220.6 332.24L218.17 338.899H223.009Z"></path>
<path fill="#017B9A" d="M240.343 333.539C239.959 332.824 239.426 332.288 238.744 331.931C238.062 331.56 237.273 331.374 236.378 331.374C235.398 331.374 234.524 331.587 233.757 332.014C232.989 332.44 232.385 333.044 231.945 333.828C231.519 334.611 231.305 335.518 231.305 336.549C231.305 337.58 231.519 338.494 231.945 339.291C232.385 340.074 232.989 340.679 233.757 341.105C234.524 341.531 235.398 341.744 236.378 341.744C237.7 341.744 238.772 341.387 239.597 340.672C240.421 339.957 240.925 338.988 241.11 337.765H235.547V335.889H243.71V337.724C243.554 338.837 243.142 339.861 242.474 340.796C241.82 341.73 240.961 342.479 239.895 343.043C238.843 343.592 237.671 343.867 236.378 343.867C234.986 343.867 233.714 343.558 232.563 342.94C231.412 342.307 230.496 341.435 229.813 340.322C229.146 339.208 228.812 337.951 228.812 336.549C228.812 335.147 229.146 333.89 229.813 332.776C230.496 331.663 231.412 330.797 232.563 330.179C233.728 329.547 235 329.23 236.378 329.23C237.955 329.23 239.355 329.608 240.577 330.364C241.813 331.106 242.708 332.165 243.263 333.539H240.343Z"></path>
<path fill="#017B9A" d="M248.536 331.313V335.518H253.652V337.435H248.536V341.826H254.291V343.744H246.107V329.395H254.291V331.313H248.536Z"></path>
<path fill="#017B9A" d="M264.978 343.744L261.568 338.013H259.714V343.744H257.284V329.416H262.399C263.536 329.416 264.495 329.608 265.277 329.993C266.072 330.378 266.662 330.893 267.046 331.539C267.444 332.185 267.643 332.907 267.643 333.704C267.643 334.639 267.358 335.491 266.79 336.26C266.236 337.016 265.376 337.532 264.211 337.806L267.877 343.744H264.978ZM259.714 336.137H262.399C263.309 336.137 263.991 335.917 264.445 335.477C264.914 335.037 265.149 334.446 265.149 333.704C265.149 332.962 264.922 332.385 264.467 331.972C264.012 331.546 263.323 331.333 262.399 331.333H259.714V336.137Z"></path>
<path fill="#017B9A" d="M275.632 343.888C274.637 343.888 273.742 343.723 272.946 343.393C272.151 343.05 271.525 342.569 271.071 341.95C270.616 341.332 270.389 340.61 270.389 339.786H272.989C273.046 340.404 273.294 340.912 273.735 341.311C274.19 341.71 274.822 341.909 275.632 341.909C276.47 341.909 277.124 341.716 277.593 341.332C278.062 340.933 278.296 340.425 278.296 339.806C278.296 339.325 278.147 338.933 277.848 338.631C277.564 338.329 277.202 338.095 276.761 337.93C276.335 337.765 275.738 337.587 274.971 337.394C274.005 337.147 273.216 336.899 272.605 336.652C272.008 336.391 271.497 335.992 271.071 335.456C270.644 334.92 270.431 334.206 270.431 333.312C270.431 332.488 270.644 331.766 271.071 331.148C271.497 330.529 272.094 330.055 272.861 329.725C273.628 329.395 274.516 329.23 275.525 329.23C276.96 329.23 278.133 329.581 279.042 330.282C279.966 330.969 280.477 331.917 280.577 333.127H277.891C277.848 332.605 277.593 332.158 277.124 331.787C276.655 331.416 276.037 331.23 275.27 331.23C274.573 331.23 274.005 331.402 273.564 331.746C273.124 332.089 272.904 332.584 272.904 333.23C272.904 333.67 273.039 334.034 273.309 334.322C273.593 334.597 273.948 334.817 274.374 334.982C274.801 335.147 275.383 335.326 276.122 335.518C277.103 335.779 277.898 336.04 278.509 336.302C279.134 336.563 279.66 336.968 280.086 337.518C280.527 338.054 280.747 338.775 280.747 339.682C280.747 340.411 280.541 341.098 280.129 341.744C279.731 342.39 279.142 342.912 278.36 343.311C277.593 343.696 276.683 343.888 275.632 343.888Z"></path>
<path fill="#017B9A" d="M185.098 420.614H190.132V422.657H182.656V407.227H185.098V420.614Z"></path>
<path fill="#017B9A" d="M194.616 409.27V413.799H199.758V415.863H194.616V420.592H200.4V422.657H192.174V407.205H200.4V409.27H194.616Z"></path>
<path fill="#017B9A" d="M212.383 419.504H206.15L205.079 422.657H202.53L207.864 407.205H210.691L216.025 422.657H213.455L212.383 419.504ZM211.698 417.44L209.277 410.269L206.835 417.44H211.698Z"></path>
<path fill="#017B9A" d="M223.207 407.227C224.792 407.227 226.177 407.545 227.363 408.182C228.562 408.803 229.483 409.706 230.126 410.89C230.783 412.06 231.111 413.429 231.111 414.998C231.111 416.566 230.783 417.928 230.126 419.083C229.483 420.237 228.562 421.125 227.363 421.747C226.177 422.354 224.792 422.657 223.207 422.657H218.344V407.227H223.207ZM223.207 420.592C224.949 420.592 226.284 420.104 227.213 419.127C228.141 418.15 228.605 416.774 228.605 414.998C228.605 413.207 228.141 411.808 227.213 410.802C226.284 409.795 224.949 409.292 223.207 409.292H220.786V420.592H223.207Z"></path>
<path fill="#017B9A" d="M235.974 409.27V413.799H241.115V415.863H235.974V420.592H241.757V422.657H233.532V407.205H241.757V409.27H235.974Z"></path>
<path fill="#017B9A" d="M252.498 422.657L249.071 416.485H247.207V422.657H244.765V407.227H249.906C251.049 407.227 252.013 407.434 252.798 407.849C253.598 408.263 254.19 408.818 254.576 409.514C254.976 410.21 255.176 410.987 255.176 411.845C255.176 412.851 254.89 413.769 254.319 414.598C253.762 415.412 252.898 415.967 251.727 416.263L255.411 422.657H252.498ZM247.207 414.465H249.906C250.82 414.465 251.506 414.228 251.963 413.754C252.434 413.281 252.669 412.644 252.669 411.845C252.669 411.046 252.441 410.424 251.984 409.98C251.527 409.521 250.834 409.292 249.906 409.292H247.207V414.465Z"></path>
<path fill="#017B9A" d="M263.205 422.812C262.206 422.812 261.306 422.635 260.506 422.28C259.706 421.909 259.078 421.391 258.621 420.725C258.164 420.059 257.936 419.282 257.936 418.394H260.549C260.606 419.06 260.856 419.608 261.299 420.037C261.756 420.466 262.391 420.681 263.205 420.681C264.048 420.681 264.705 420.474 265.176 420.059C265.647 419.63 265.883 419.083 265.883 418.417C265.883 417.898 265.733 417.477 265.433 417.151C265.147 416.825 264.783 416.574 264.34 416.396C263.912 416.219 263.312 416.026 262.541 415.819C261.57 415.553 260.777 415.286 260.163 415.02C259.564 414.739 259.049 414.309 258.621 413.732C258.193 413.155 257.978 412.385 257.978 411.423C257.978 410.535 258.193 409.758 258.621 409.092C259.049 408.426 259.649 407.915 260.42 407.56C261.192 407.205 262.084 407.027 263.098 407.027C264.54 407.027 265.719 407.405 266.633 408.16C267.561 408.9 268.075 409.921 268.175 411.223H265.476C265.433 410.661 265.176 410.18 264.705 409.78C264.233 409.381 263.612 409.181 262.841 409.181C262.141 409.181 261.57 409.366 261.127 409.736C260.685 410.106 260.463 410.639 260.463 411.334C260.463 411.808 260.599 412.2 260.87 412.511C261.156 412.807 261.513 413.044 261.941 413.221C262.37 413.399 262.955 413.591 263.698 413.799C264.683 414.08 265.483 414.361 266.097 414.642C266.725 414.924 267.254 415.36 267.682 415.952C268.125 416.529 268.346 417.306 268.346 418.283C268.346 419.068 268.139 419.808 267.725 420.503C267.325 421.199 266.733 421.761 265.947 422.191C265.176 422.605 264.262 422.812 263.205 422.812Z"></path>
</svg>
