<svg width="576" height="585" viewBox="0 0 576 585" fill="none" xmlns="http://www.w3.org/2000/svg">
<path d="M286.94 4.10601L287.925 2.36867L288.36 2.6153L288.416 2.51539L288.473 2.6151L288.908 2.36931L289.889 4.10664L289.453 4.35243L290.434 6.08978L290.869 5.84398L291.85 7.58131L291.415 7.82711L292.396 9.56443L292.831 9.31864L293.812 11.056L293.376 11.3018L294.357 13.0391L294.792 12.7933L295.773 14.5306L295.338 14.7764L296.318 16.5138L296.754 16.268L297.734 18.0053L297.299 18.2511L298.28 19.9884L298.715 19.7426L299.696 21.48L299.261 21.7258L300.241 23.4631L300.677 23.2173L301.657 24.9546L301.222 25.2004L302.203 26.9377L302.638 26.692L303.619 28.4293L303.183 28.6751L304.164 30.4124L304.6 30.1666L305.58 31.904L305.145 32.1498L306.126 33.8871L306.561 33.6413L307.542 35.3786L307.106 35.6244L308.087 37.3618L308.522 37.116L309.503 38.8533L309.068 39.0991L310.048 40.8364L310.484 40.5906L311.465 42.3279L311.029 42.5737L312.01 44.3111L312.445 44.0653L313.426 45.8026L312.991 46.0484L313.971 47.7857L314.407 47.54L315.387 49.2773L314.952 49.5231L315.933 51.2604L316.368 51.0146L317.349 52.752L316.913 52.9977L317.894 54.7351L318.33 54.4893L319.31 56.2266L318.875 56.4724L319.856 58.2097L320.291 57.9639L321.272 59.7013L320.836 59.9471L321.817 61.6844L322.252 61.4386L323.233 63.1759L322.798 63.4217L323.778 65.1591L324.214 64.9133L325.195 66.6506L324.759 66.8964L325.74 68.6337L326.175 68.3879L327.156 70.1253L326.721 70.3711L327.701 72.1084L328.137 71.8626L329.117 73.5999L328.682 73.8457L329.663 75.583L330.098 75.3373L331.079 77.0746L330.643 77.3204L331.624 79.0577L332.06 78.8119L333.04 80.5493L332.605 80.7951L333.586 82.5324L334.021 82.2866L335.002 84.0239L334.566 84.2697L335.547 86.007L335.982 85.7613L336.963 87.4986L336.528 87.7444L337.508 89.4817L337.944 89.2359L338.925 90.9732L338.489 91.219L339.47 92.9564L339.905 92.7106L340.886 94.4479L340.451 94.6937L341.431 96.431L341.867 96.1852L342.847 97.9226L342.412 98.1684L343.393 99.9057L343.828 99.6599L344.809 101.397L344.373 101.643L345.354 103.38L345.79 103.135L346.77 104.872L346.335 105.118L347.316 106.855L347.751 106.609L348.732 108.347L348.296 108.592L349.277 110.33L349.712 110.084L350.693 111.821L350.258 112.067L351.238 113.804L351.674 113.559L352.655 115.296L352.219 115.542L353.2 117.279L353.635 117.033L354.616 118.771L354.181 119.016L355.161 120.754L355.597 120.508L356.577 122.245L356.142 122.491L357.123 124.228L357.558 123.983L358.539 125.72L358.104 125.966L359.084 127.703L359.52 127.457L360.5 129.195L360.065 129.44L361.046 131.178L361.481 130.932L362.462 132.669L362.026 132.915L363.007 134.652L363.442 134.407L364.423 136.144L363.988 136.39L364.969 138.127L365.404 137.881L366.385 139.619L365.949 139.864L366.93 141.602L367.365 141.356L368.346 143.093L367.911 143.339L368.891 145.076L369.327 144.831L370.307 146.568L369.872 146.814L370.853 148.551L371.288 148.305L372.269 150.043L371.834 150.288L372.814 152.026L373.25 151.78L374.23 153.517L373.795 153.763L374.776 155.5L375.211 155.255L376.192 156.992L375.756 157.238L376.737 158.975L377.173 158.729L378.153 160.467L377.718 160.712L378.699 162.45L379.134 162.204L380.115 163.941L379.679 164.187L380.66 165.924L381.095 165.679L382.076 167.416L381.641 167.662L382.621 169.399L383.057 169.153L384.038 170.891L383.602 171.136L384.583 172.874L385.018 172.628L385.999 174.365L385.564 174.611L386.544 176.348L386.98 176.103L387.96 177.84L387.525 178.086L388.506 179.823L388.941 179.577L389.922 181.315L389.486 181.56L390.467 183.298L390.903 183.052L391.883 184.789L391.448 185.035L392.429 186.772L392.864 186.527L393.845 188.264L393.409 188.51L394.39 190.247L394.825 190.001L395.806 191.739L395.371 191.984L396.351 193.722L396.787 193.476L397.768 195.213L397.332 195.459L398.313 197.196L398.748 196.951L399.729 198.688L399.294 198.934L400.274 200.671L400.71 200.425L401.69 202.163L401.255 202.408L402.236 204.146L402.671 203.9L403.652 205.637L403.216 205.883L404.197 207.62L404.633 207.374L405.613 209.112L405.178 209.358L406.159 211.095L406.594 210.849L407.575 212.587L407.139 212.832L408.12 214.57L408.555 214.324L409.536 216.061L409.101 216.307L410.081 218.044L410.517 217.799L411.498 219.536L411.062 219.782L412.043 221.519L412.478 221.273L413.459 223.011L413.024 223.256L414.004 224.994L414.44 224.748L415.42 226.485L414.985 226.731L415.966 228.468L416.401 228.223L417.382 229.96L416.947 230.206L417.927 231.943L418.363 231.697L419.343 233.435L418.908 233.68L419.889 235.418L420.324 235.172L421.305 236.909L420.869 237.155L421.85 238.892L422.286 238.647L423.266 240.384L422.831 240.63L423.812 242.367L424.247 242.121L425.228 243.859L424.792 244.104L425.773 245.842L426.208 245.596L427.189 247.333L426.754 247.579L427.734 249.316L428.17 249.071L429.151 250.808L428.715 251.054L429.696 252.791L430.131 252.545L431.112 254.283L430.677 254.528L431.657 256.266L432.093 256.02L433.073 257.757L432.638 258.003L433.619 259.74L434.054 259.495L435.035 261.232L434.599 261.478L435.58 263.215L436.016 262.969L436.996 264.707L436.561 264.952L437.542 266.69L437.977 266.444L438.958 268.181L438.522 268.427L439.503 270.164L439.938 269.919L440.919 271.656L440.484 271.902L441.465 273.639L441.9 273.393L442.881 275.131L442.445 275.376L443.426 277.114L443.861 276.868L444.842 278.605L444.407 278.851L445.387 280.589L445.823 280.343L446.804 282.08L446.368 282.326L447.349 284.063L447.784 283.817L448.765 285.555L448.33 285.801L449.31 287.538L449.746 287.292L450.726 289.029L450.291 289.275L451.272 291.013L451.707 290.767L452.688 292.504L452.252 292.75L453.233 294.487L453.669 294.241L454.649 295.979L454.214 296.225L455.195 297.962L455.63 297.716L456.611 299.453L456.175 299.699L457.156 301.437L457.591 301.191L458.572 302.928L458.137 303.174L459.117 304.911L459.553 304.665L460.534 306.403L460.098 306.649L461.079 308.386L461.514 308.14L462.495 309.877L462.06 310.123L463.04 311.861L463.476 311.615L464.456 313.352L464.021 313.598L465.002 315.335L465.437 315.089L466.418 316.827L465.983 317.073L466.963 318.81L467.399 318.564L468.379 320.302L467.944 320.547L468.013 320.67H467.865V321.17H465.855V320.67H463.845V321.17H461.836V320.67H459.826V321.17H457.817V320.67H455.807V321.17H453.798V320.67H451.788V321.17H449.779V320.67H447.769V321.17H445.76V320.67H443.75V321.17H441.74V320.67H439.731V321.17H437.721V320.67H435.712V321.17H433.702V320.67H431.693V321.17H429.683V320.67H427.674V321.17H425.664V320.67H423.654V321.17H421.645V320.67H419.635V321.17H417.626V320.67H415.616V321.17H413.607V320.67H411.597V321.17H409.588V320.67H407.578V321.17H405.568V320.67H403.559V321.17H401.549V320.67H399.54V321.17H397.53V320.67H395.521V321.17H393.511V320.67H391.502V321.17H389.492V320.67H387.483V321.17H385.473V320.67H383.463V321.17H381.454V320.67H379.444V321.17H377.435V320.67H375.425V321.17H373.416V320.67H371.406V321.17H369.397V320.67H367.387V321.17H365.377V320.67H363.368V321.17H361.358V320.67H359.349V321.17H357.339V320.67H355.33V321.17H353.32V320.67H351.31V321.17H349.301V320.67H347.291V321.17H345.282V320.67H343.272V321.17H341.263V320.67H339.253V321.17H337.243V320.67H335.234V321.17H333.224V320.67H331.215V321.17H329.205V320.67H327.196V321.17H325.186V320.67H323.177V321.17H321.167V320.67H319.157V321.17H317.148V320.67H315.138V321.17H313.129V320.67H311.119V321.17H309.11V320.67H307.1V321.17H305.09V320.67H303.081V321.17H301.071V320.67H299.062V321.17H297.052V320.67H295.043V321.17H293.033V320.67H291.023V321.17H289.014V320.67H287.004V321.17H284.995V320.67H282.985V321.17H280.976V320.67H278.966V321.17H276.956V320.67H274.947V321.17H272.937V320.67H270.928V321.17H268.918V320.67H266.909V321.17H264.899V320.67H262.89V321.17H260.88V320.67H258.87V321.17H256.861V320.67H254.851V321.17H252.842V320.67H250.832V321.17H248.823V320.67H246.813V321.17H244.803V320.67H242.794V321.17H240.784V320.67H238.775V321.17H236.765V320.67H234.756V321.17H232.746V320.67H230.736V321.17H228.727V320.67H226.717V321.17H224.708V320.67H222.698V321.17H220.689V320.67H218.679V321.17H216.67V320.67H214.66V321.17H212.65V320.67H210.641V321.17H208.631V320.67H206.622V321.17H204.612V320.67H202.603V321.17H200.593V320.67H198.584V321.17H196.574V320.67H194.564V321.17H192.555V320.67H190.545V321.17H188.536V320.67H186.526V321.17H184.517V320.67H182.507V321.17H180.497V320.67H178.488V321.17H176.478V320.67H174.469V321.17H172.459V320.67H170.45V321.17H168.44V320.67H166.431V321.17H164.421V320.67H162.411V321.17H160.402V320.67H158.392V321.17H156.383V320.67H154.373V321.17H152.364V320.67H150.354V321.17H148.344V320.67H146.335V321.17H144.325V320.67H142.316V321.17H140.306V320.67H138.297V321.17H136.287V320.67H134.278V321.17H132.268V320.67H130.258V321.17H128.249V320.67H126.239V321.17H124.23V320.67H122.22V321.17H120.211V320.67H118.201V321.17H116.191V320.67H114.182V321.17H112.172V320.67H110.163V321.17H108.153V320.67H108.007L108.076 320.549L107.641 320.302L108.626 318.565L109.061 318.811L110.046 317.074L109.611 316.827L110.596 315.09L111.031 315.337L112.016 313.599L111.581 313.353L112.567 311.615L113.001 311.862L113.987 310.125L113.552 309.878L114.537 308.141L114.972 308.387L115.957 306.65L115.522 306.403L116.507 304.666L116.942 304.913L117.927 303.175L117.492 302.929L118.477 301.191L118.912 301.438L119.898 299.701L119.463 299.454L120.448 297.717L120.883 297.963L121.868 296.226L121.433 295.979L122.418 294.242L122.853 294.488L123.838 292.751L123.403 292.505L124.388 290.767L124.823 291.014L125.809 289.276L125.374 289.03L126.359 287.293L126.794 287.539L127.779 285.802L127.344 285.555L128.329 283.818L128.764 284.064L129.749 282.327L129.314 282.08L130.299 280.343L130.734 280.59L131.719 278.852L131.285 278.606L132.27 276.868L132.705 277.115L133.69 275.378L133.255 275.131L134.24 273.394L134.675 273.64L135.66 271.903L135.225 271.656L136.21 269.919L136.645 270.166L137.63 268.428L137.196 268.182L138.181 266.444L138.616 266.691L139.601 264.954L139.166 264.707L140.151 262.97L140.586 263.216L141.571 261.479L141.136 261.232L142.121 259.495L142.556 259.742L143.541 258.004L143.106 257.758L144.092 256.02L144.527 256.267L145.512 254.53L145.077 254.283L146.062 252.546L146.497 252.792L147.482 251.055L147.047 250.808L148.032 249.071L148.467 249.318L149.452 247.58L149.017 247.334L150.003 245.596L150.438 245.843L151.423 244.106L150.988 243.859L151.973 242.122L152.408 242.368L153.393 240.631L152.958 240.384L153.943 238.647L154.378 238.894L155.363 237.156L154.928 236.91L155.914 235.172L156.348 235.419L157.334 233.682L156.899 233.435L157.884 231.698L158.319 231.944L159.304 230.207L158.869 229.96L159.854 228.223L160.289 228.469L161.274 226.732L160.839 226.486L161.825 224.748L162.259 224.995L163.245 223.257L162.81 223.011L163.795 221.273L164.23 221.52L165.215 219.783L164.78 219.536L165.765 217.799L166.2 218.045L167.185 216.308L166.75 216.061L167.735 214.324L168.17 214.571L169.156 212.833L168.721 212.587L169.706 210.849L170.141 211.096L171.126 209.359L170.691 209.112L171.676 207.375L172.111 207.621L173.096 205.884L172.661 205.637L173.646 203.9L174.081 204.147L175.067 202.409L174.632 202.163L175.617 200.425L176.052 200.672L177.037 198.935L176.602 198.688L177.587 196.951L178.022 197.197L179.007 195.46L178.572 195.213L179.557 193.476L179.992 193.723L180.977 191.985L180.543 191.739L181.528 190.001L181.963 190.248L182.948 188.511L182.513 188.264L183.498 186.527L183.933 186.773L184.918 185.036L184.483 184.789L185.468 183.052L185.903 183.299L186.888 181.561L186.453 181.315L187.439 179.577L187.874 179.824L188.859 178.087L188.424 177.84L189.409 176.103L189.844 176.349L190.829 174.612L190.394 174.365L191.379 172.628L191.814 172.875L192.799 171.137L192.364 170.891L193.35 169.153L193.785 169.4L194.77 167.663L194.335 167.416L195.32 165.679L195.755 165.925L196.74 164.188L196.305 163.941L197.29 162.204L197.725 162.45L198.71 160.713L198.275 160.467L199.261 158.729L199.696 158.976L200.681 157.238L200.246 156.992L201.231 155.254L201.666 155.501L202.651 153.764L202.216 153.517L203.201 151.78L203.636 152.026L204.621 150.289L204.186 150.042L205.172 148.305L205.606 148.552L206.592 146.814L206.157 146.568L207.142 144.83L207.577 145.077L208.562 143.34L208.127 143.093L209.112 141.356L209.547 141.602L210.532 139.865L210.097 139.618L211.082 137.881L211.517 138.128L212.503 136.39L212.068 136.144L213.053 134.406L213.488 134.653L214.473 132.916L214.038 132.669L215.023 130.932L215.458 131.178L216.443 129.441L216.008 129.194L216.993 127.457L217.428 127.704L218.414 125.966L217.979 125.72L218.964 123.982L219.399 124.229L220.384 122.492L219.949 122.245L220.934 120.508L221.369 120.754L222.354 119.017L221.919 118.77L222.904 117.033L223.339 117.28L224.325 115.542L223.89 115.296L224.875 113.558L225.31 113.805L226.295 112.068L225.86 111.821L226.845 110.084L227.28 110.33L228.265 108.593L227.83 108.346L228.815 106.609L229.25 106.856L230.235 105.118L229.801 104.872L230.786 103.134L231.221 103.381L232.206 101.644L231.771 101.397L232.756 99.6596L233.191 99.9062L234.176 98.1689L233.741 97.9222L234.726 96.1849L235.161 96.4315L236.146 94.6942L235.711 94.4476L236.697 92.7102L237.132 92.9569L238.117 91.2195L237.682 90.9729L238.667 89.2355L239.102 89.4822L240.087 87.7449L239.652 87.4982L240.637 85.7609L241.072 86.0075L242.057 84.2702L241.622 84.0235L242.608 82.2862L243.042 82.5328L244.028 80.7955L243.593 80.5489L244.578 78.8115L245.013 79.0582L245.998 77.3208L245.563 77.0742L246.548 75.3369L246.983 75.5835L247.968 73.8462L247.533 73.5995L248.518 71.8622L248.953 72.1088L249.939 70.3715L249.504 70.1248L250.489 68.3875L250.924 68.6342L251.909 66.8968L251.474 66.6502L252.459 64.9128L252.894 65.1595L253.879 63.4221L253.444 63.1755L254.429 61.4382L254.864 61.6848L255.85 59.9475L255.415 59.7008L256.4 57.9635L256.835 58.2101L257.82 56.4728L257.385 56.2262L258.37 54.4888L258.805 54.7355L259.79 52.9981L259.355 52.7515L260.34 51.0141L260.775 51.2608L261.76 49.5234L261.326 49.2768L262.311 47.5395L262.746 47.7861L263.731 46.0488L263.296 45.8021L264.281 44.0648L264.716 44.3114L265.701 42.5741L265.266 42.3274L266.251 40.5901L266.686 40.8367L267.671 39.0994L267.236 38.8528L268.222 37.1154L268.657 37.3621L269.642 35.6247L269.207 35.3781L270.192 33.6408L270.627 33.8874L271.612 32.15L271.177 31.9034L272.162 30.1661L272.597 30.4127L273.582 28.6754L273.147 28.4287L274.133 26.6914L274.567 26.938L275.553 25.2007L275.118 24.9541L276.103 23.2167L276.538 23.4634L277.523 21.726L277.088 21.4794L278.073 19.742L278.508 19.9887L279.493 18.2513L279.058 18.0047L280.043 16.2674L280.478 16.514L281.464 14.7767L281.029 14.53L282.014 12.7927L282.449 13.0393L283.434 11.302L282.999 11.0554L283.984 9.31802L284.419 9.56465L285.404 7.82732L284.969 7.58068L285.954 5.84334L286.389 6.08998L287.375 4.35264L286.94 4.10601Z" fill="white" fill-opacity="0.07" stroke="#FAF8F5" stroke-dasharray="2 2"/>
<path d="M286.93 4.10814L287.922 2.36938L288.356 2.61701L288.417 2.50957L288.479 2.61722L288.913 2.36959L289.904 4.10836L289.47 4.35599L290.461 6.09474L290.896 5.84712L291.887 7.58587L291.452 7.8335L292.444 9.57227L292.878 9.32464L293.869 11.0634L293.435 11.311L294.426 13.0498L294.861 12.8022L295.852 14.5409L295.417 14.7886L296.409 16.5273L296.843 16.2797L297.834 18.0184L297.4 18.2661L298.391 20.0048L298.826 19.7572L299.817 21.496L299.382 21.7436L300.374 23.4824L300.808 23.2347L301.799 24.9735L301.365 25.2211L302.356 26.9599L302.791 26.7123L303.782 28.451L303.347 28.6986L304.339 30.4374L304.773 30.1898L305.764 31.9285L305.33 32.1762L306.321 33.9149L306.756 33.6673L307.747 35.4061L307.312 35.6537L308.304 37.3925L308.738 37.1448L309.729 38.8836L309.295 39.1312L310.286 40.87L310.721 40.6223L311.712 42.3611L311.277 42.6087L312.269 44.3475L312.703 44.0999L313.694 45.8386L313.26 46.0863L314.251 47.825L314.685 47.5774L315.677 49.3162L315.242 49.5638L316.234 51.3025L316.668 51.0549L317.659 52.7937L317.225 53.0413L318.216 54.7801L318.65 54.5324L319.642 56.2712L319.207 56.5188L320.199 58.2576L320.633 58.01L321.624 59.7487L321.19 59.9963L322.181 61.7351L322.615 61.4875L323.607 63.2262L323.172 63.4739L324.164 65.2126L324.598 64.965L325.589 66.7038L325.155 66.9514L326.146 68.6902L326.58 68.4425L327.572 70.1813L327.137 70.4289L328.129 72.1677L328.563 71.9201L329.554 73.6588L329.12 73.9064L330.111 75.6452L330.545 75.3976L331.537 77.1363L331.102 77.384L332.094 79.1227L332.528 78.8751L333.519 80.6139L333.085 80.8615L334.076 82.6002L334.51 82.3526L335.502 84.0914L335.067 84.339L336.059 86.0778L336.493 85.8301L337.484 87.5689L337.05 87.8165L338.041 89.5553L338.475 89.3077L339.467 91.0464L339.032 91.2941L340.024 93.0328L340.458 92.7852L341.449 94.5239L341.015 94.7716L342.006 96.5103L342.44 96.2627L343.432 98.0015L342.997 98.2491L343.989 99.9879L344.423 99.7402L345.414 101.479L344.98 101.727L345.971 103.465L346.405 103.218L347.397 104.957L346.962 105.204L347.954 106.943L348.388 106.695L349.379 108.434L348.945 108.682L349.936 110.42L350.37 110.173L351.362 111.912L350.927 112.159L351.919 113.898L352.353 113.65L353.344 115.389L352.91 115.637L353.901 117.375L354.335 117.128L355.327 118.867L354.892 119.114L355.883 120.853L356.318 120.605L357.309 122.344L356.875 122.592L357.866 124.331L358.3 124.083L359.292 125.822L358.857 126.069L359.848 127.808L360.283 127.56L361.274 129.299L360.84 129.547L361.831 131.286L362.265 131.038L363.257 132.777L362.822 133.024L363.813 134.763L364.248 134.515L365.239 136.254L364.805 136.502L365.796 138.241L366.23 137.993L367.222 139.732L366.787 139.979L367.778 141.718L368.213 141.471L369.204 143.209L368.77 143.457L369.761 145.196L370.195 144.948L371.187 146.687L370.752 146.934L371.743 148.673L372.178 148.426L373.169 150.164L372.735 150.412L373.726 152.151L374.16 151.903L375.152 153.642L374.717 153.889L375.708 155.628L376.143 155.381L377.134 157.119L376.7 157.367L377.691 159.106L378.125 158.858L379.117 160.597L378.682 160.845L379.673 162.583L380.108 162.336L381.099 164.074L380.665 164.322L381.656 166.061L382.09 165.813L383.082 167.552L382.647 167.8L383.638 169.538L384.073 169.291L385.064 171.03L384.63 171.277L385.621 173.016L386.055 172.768L387.047 174.507L386.612 174.755L387.603 176.493L388.038 176.246L389.029 177.985L388.595 178.232L389.586 179.971L390.02 179.723L391.012 181.462L390.577 181.71L391.568 183.448L392.003 183.201L392.994 184.94L392.56 185.187L393.551 186.926L393.985 186.678L394.977 188.417L394.542 188.665L395.533 190.404L395.968 190.156L396.959 191.895L396.525 192.142L397.516 193.881L397.95 193.633L398.942 195.372L398.507 195.62L398.577 195.742H398.446V196.242H396.464V195.742H394.481V196.242H392.499V195.742H390.516V196.242H388.534V195.742H386.551V196.242H384.569V195.742H382.586V196.242H380.604V195.742H378.621V196.242H376.639V195.742H374.656V196.242H372.674V195.742H370.691V196.242H368.709V195.742H366.726V196.242H364.744V195.742H362.761V196.242H360.779V195.742H358.796V196.242H356.814V195.742H354.831V196.242H352.849V195.742H350.866V196.242H348.884V195.742H346.901V196.242H344.919V195.742H342.936V196.242H340.954V195.742H338.971V196.242H336.989V195.742H335.006V196.242H333.024V195.742H331.041V196.242H329.059V195.742H327.076V196.242H325.094V195.742H323.111V196.242H321.129V195.742H319.146V196.242H317.164V195.742H315.181V196.242H313.199V195.742H311.216V196.242H309.234V195.742H307.251V196.242H305.269V195.742H303.286V196.242H301.304V195.742H299.321V196.242H297.339V195.742H295.356V196.242H293.374V195.742H291.391V196.242H289.409V195.742H287.426V196.242H285.444V195.742H283.461V196.242H281.479V195.742H279.496V196.242H277.514V195.742H275.531V196.242H273.549V195.742H271.566V196.242H269.584V195.742H267.601V196.242H265.619V195.742H263.636V196.242H261.654V195.742H259.671V196.242H257.689V195.742H255.706V196.242H253.724V195.742H251.741V196.242H249.759V195.742H247.776V196.242H245.794V195.742H243.811V196.242H241.829V195.742H239.846V196.242H237.864V195.742H235.881V196.242H233.899V195.742H231.916V196.242H229.934V195.742H227.951V196.242H225.969V195.742H223.986V196.242H222.004V195.742H220.021V196.242H218.039V195.742H216.056V196.242H214.074V195.742H212.091V196.242H210.109V195.742H208.126V196.242H206.144V195.742H204.161V196.242H202.179V195.742H200.196V196.242H198.214V195.742H196.231V196.242H194.249V195.742H192.266V196.242H190.284V195.742H188.301V196.242H186.319V195.742H184.336V196.242H182.354V195.742H180.371V196.242H178.389V195.742H178.258L178.328 195.62L177.893 195.372L178.884 193.633L179.319 193.881L180.31 192.142L179.876 191.894L180.867 190.156L181.301 190.403L182.293 188.665L181.858 188.417L182.849 186.678L183.284 186.926L184.275 185.187L183.841 184.939L184.832 183.201L185.266 183.448L186.258 181.71L185.823 181.462L186.814 179.723L187.249 179.971L188.24 178.232L187.806 177.984L188.797 176.246L189.231 176.493L190.223 174.755L189.788 174.507L190.779 172.768L191.214 173.016L192.205 171.277L191.771 171.029L192.762 169.291L193.196 169.538L194.188 167.799L193.753 167.552L194.744 165.813L195.179 166.061L196.17 164.322L195.736 164.074L196.727 162.336L197.161 162.583L198.153 160.844L197.718 160.597L198.709 158.858L199.144 159.106L200.135 157.367L199.701 157.119L200.692 155.38L201.126 155.628L202.118 153.889L201.683 153.642L202.674 151.903L203.109 152.151L204.1 150.412L203.666 150.164L204.657 148.425L205.091 148.673L206.083 146.934L205.648 146.687L206.639 144.948L207.074 145.196L208.065 143.457L207.631 143.209L208.622 141.47L209.056 141.718L210.048 139.979L209.613 139.732L210.604 137.993L211.039 138.241L212.03 136.502L211.596 136.254L212.587 134.515L213.021 134.763L214.012 133.024L213.578 132.777L214.569 131.038L215.004 131.285L215.995 129.547L215.561 129.299L216.552 127.56L216.986 127.808L217.977 126.069L217.543 125.822L218.534 124.083L218.969 124.33L219.96 122.592L219.526 122.344L220.517 120.605L220.951 120.853L221.942 119.114L221.508 118.866L222.499 117.128L222.934 117.375L223.925 115.637L223.491 115.389L224.482 113.65L224.916 113.898L225.907 112.159L225.473 111.911L226.464 110.173L226.899 110.42L227.89 108.682L227.456 108.434L228.447 106.695L228.881 106.943L229.872 105.204L229.438 104.956L230.429 103.218L230.864 103.465L231.855 101.727L231.421 101.479L232.412 99.7401L232.846 99.9878L233.837 98.249L233.403 98.0014L234.394 96.2626L234.829 96.5102L235.82 94.7715L235.386 94.5238L236.377 92.7851L236.811 93.0327L237.802 91.2939L237.368 91.0463L238.359 89.3075L238.794 89.5552L239.785 87.8164L239.351 87.5688L240.342 85.83L240.776 86.0777L241.767 84.3389L241.333 84.0913L242.324 82.3525L242.759 82.6001L243.75 80.8614L243.316 80.6137L244.307 78.875L244.741 79.1226L245.732 77.3839L245.298 77.1362L246.289 75.3975L246.724 75.6451L247.715 73.9063L247.281 73.6587L248.272 71.9199L248.706 72.1676L249.697 70.4288L249.263 70.1812L250.254 68.4424L250.689 68.69L251.68 66.9513L251.246 66.7037L252.237 64.9649L252.671 65.2125L253.662 63.4738L253.228 63.2261L254.219 61.4874L254.654 61.735L255.645 59.9962L255.21 59.7486L256.202 58.0099L256.636 58.2575L257.627 56.5187L257.193 56.2711L258.184 54.5323L258.619 54.78L259.61 53.0412L259.175 52.7936L260.167 51.0548L260.601 51.3024L261.592 49.5637L261.158 49.316L262.149 47.5773L262.584 47.8249L263.575 46.0861L263.14 45.8385L264.132 44.0997L264.566 44.3474L265.557 42.6086L265.123 42.361L266.114 40.6222L266.549 40.8698L267.54 39.1311L267.105 38.8834L268.097 37.1447L268.531 37.3923L269.522 35.6535L269.088 35.4059L270.079 33.6671L270.514 33.9148L271.505 32.176L271.07 31.9284L272.062 30.1896L272.496 30.4372L273.487 28.6985L273.053 28.4509L274.044 26.7121L274.479 26.9597L275.47 25.221L275.035 24.9733L276.027 23.2346L276.461 23.4822L277.452 21.7434L277.018 21.4958L278.009 19.757L278.444 20.0047L279.435 18.2659L279 18.0183L279.992 16.2795L280.426 16.5271L281.417 14.7884L280.983 14.5407L281.974 12.802L282.409 13.0496L283.4 11.3108L282.965 11.0632L283.957 9.32444L284.391 9.57207L285.382 7.83331L284.948 7.58567L285.939 5.84691L286.374 6.09454L287.365 4.35578L286.93 4.10814Z" fill="white" fill-opacity="0.07" stroke="#FAF8F5" stroke-dasharray="2 2"/>
<path d="M41.2266 437.75L288.417 3.52134L535.608 437.75H41.2266Z" fill="white" fill-opacity="0.07" stroke="#3BD39D" stroke-width="2"/>
<path d="M273.41 375.716V394.818H270.453V375.716H273.41Z" fill="#FAF8F5"/>
<path d="M276.306 385.226C276.306 383.357 276.713 381.68 277.526 380.196C278.356 378.712 279.471 377.558 280.871 376.733C282.289 375.89 283.837 375.469 285.514 375.469C287.434 375.469 289.137 375.973 290.624 376.98C292.128 377.97 293.218 379.381 293.892 381.213H290.339C289.872 380.205 289.223 379.454 288.393 378.959C287.563 378.465 286.604 378.217 285.514 378.217C284.321 378.217 283.258 378.501 282.324 379.069C281.39 379.637 280.655 380.453 280.119 381.515C279.601 382.578 279.341 383.815 279.341 385.226C279.341 386.637 279.601 387.874 280.119 388.936C280.655 389.999 281.39 390.824 282.324 391.41C283.258 391.978 284.321 392.262 285.514 392.262C286.604 392.262 287.563 392.015 288.393 391.52C289.223 391.025 289.872 390.274 290.339 389.266H293.892C293.218 391.098 292.128 392.509 290.624 393.499C289.137 394.488 287.434 394.983 285.514 394.983C283.82 394.983 282.272 394.571 280.871 393.746C279.471 392.903 278.356 391.74 277.526 390.256C276.713 388.771 276.306 387.095 276.306 385.226Z" fill="#FAF8F5"/>
<path d="M302.541 395.065C301.417 395.065 300.405 394.855 299.506 394.433C298.624 393.993 297.924 393.407 297.405 392.674C296.886 391.923 296.61 391.089 296.575 390.173H299.636C299.687 390.814 299.973 391.355 300.491 391.795C301.028 392.216 301.693 392.427 302.489 392.427C303.319 392.427 303.958 392.262 304.408 391.932C304.875 391.584 305.108 391.144 305.108 390.613C305.108 390.045 304.849 389.623 304.33 389.349C303.829 389.074 303.025 388.771 301.918 388.442C300.846 388.13 299.973 387.828 299.298 387.535C298.624 387.241 298.036 386.792 297.535 386.188C297.05 385.583 296.808 384.786 296.808 383.797C296.808 382.99 297.033 382.257 297.483 381.598C297.932 380.92 298.572 380.389 299.402 380.004C300.249 379.619 301.218 379.427 302.307 379.427C303.933 379.427 305.238 379.866 306.224 380.746C307.227 381.607 307.763 382.789 307.832 384.291H304.875C304.823 383.613 304.564 383.073 304.097 382.67C303.63 382.267 302.999 382.065 302.203 382.065C301.425 382.065 300.829 382.221 300.414 382.532C299.999 382.844 299.791 383.256 299.791 383.769C299.791 384.172 299.93 384.511 300.206 384.786C300.483 385.061 300.82 385.281 301.218 385.446C301.615 385.592 302.203 385.785 302.981 386.023C304.019 386.316 304.866 386.618 305.523 386.93C306.198 387.223 306.777 387.663 307.261 388.249C307.745 388.836 307.996 389.614 308.013 390.585C308.013 391.447 307.789 392.216 307.339 392.894C306.889 393.572 306.25 394.103 305.42 394.488C304.607 394.873 303.647 395.065 302.541 395.065Z" fill="#FAF8F5"/>
<path d="M237.47 251.585V269.144H234.468V257.118L228.886 269.144H226.806L221.197 257.118V269.144H218.195V251.585H221.434L227.859 265.354L234.257 251.585H237.47Z" fill="#FAF8F5"/>
<path d="M252.448 265.556H244.785L243.469 269.144H240.335L246.892 251.56H250.367L256.924 269.144H253.764L252.448 265.556ZM251.605 263.207L248.63 255.046L245.628 263.207H251.605Z" fill="#FAF8F5"/>
<path d="M274.81 269.144H271.808L262.776 256.031V269.144H259.775V251.56H262.776L271.808 264.647V251.56H274.81V269.144Z" fill="#FAF8F5"/>
<path d="M289.784 265.556H282.122L280.805 269.144H277.672L284.228 251.56H287.704L294.26 269.144H291.101L289.784 265.556ZM288.942 263.207L285.966 255.046L282.964 263.207H288.942Z" fill="#FAF8F5"/>
<path d="M310.356 256.638C309.882 255.762 309.223 255.105 308.381 254.667C307.538 254.212 306.564 253.985 305.458 253.985C304.247 253.985 303.167 254.246 302.219 254.768C301.271 255.29 300.525 256.031 299.981 256.992C299.455 257.952 299.191 259.063 299.191 260.327C299.191 261.59 299.455 262.71 299.981 263.687C300.525 264.647 301.271 265.388 302.219 265.91C303.167 266.432 304.247 266.693 305.458 266.693C307.091 266.693 308.416 266.255 309.434 265.38C310.452 264.504 311.075 263.316 311.304 261.817H304.431V259.518H314.516V261.767C314.323 263.131 313.814 264.386 312.989 265.531C312.181 266.677 311.119 267.595 309.803 268.285C308.504 268.959 307.055 269.296 305.458 269.296C303.738 269.296 302.167 268.917 300.745 268.159C299.323 267.384 298.191 266.314 297.348 264.95C296.523 263.586 296.111 262.045 296.111 260.327C296.111 258.609 296.523 257.067 297.348 255.703C298.191 254.339 299.323 253.278 300.745 252.52C302.184 251.745 303.755 251.357 305.458 251.357C307.407 251.357 309.136 251.821 310.645 252.747C312.172 253.657 313.278 254.954 313.963 256.638H310.356Z" fill="#FAF8F5"/>
<path d="M320.478 253.909V259.063H326.798V261.413H320.478V266.794H327.588V269.144H317.477V251.56H327.588V253.909H320.478Z" fill="#FAF8F5"/>
<path d="M340.79 269.144L336.577 262.12H334.287V269.144H331.285V251.585H337.604C339.009 251.585 340.194 251.821 341.159 252.292C342.142 252.764 342.87 253.395 343.344 254.187C343.836 254.979 344.082 255.863 344.082 256.84C344.082 257.985 343.731 259.03 343.028 259.973C342.344 260.899 341.282 261.531 339.842 261.868L344.371 269.144H340.79ZM334.287 259.821H337.604C338.728 259.821 339.57 259.552 340.132 259.013C340.711 258.474 341.001 257.75 341.001 256.84C341.001 255.93 340.72 255.223 340.158 254.718C339.597 254.196 338.745 253.934 337.604 253.934H334.287V259.821Z" fill="#FAF8F5"/>
<path d="M353.952 269.321C352.723 269.321 351.617 269.119 350.634 268.715C349.651 268.294 348.878 267.704 348.317 266.946C347.755 266.188 347.474 265.304 347.474 264.293H350.686C350.757 265.051 351.064 265.674 351.608 266.163C352.17 266.651 352.951 266.896 353.952 266.896C354.987 266.896 355.795 266.66 356.374 266.188C356.953 265.7 357.243 265.076 357.243 264.318C357.243 263.729 357.059 263.249 356.69 262.878C356.339 262.508 355.891 262.221 355.347 262.019C354.82 261.817 354.083 261.598 353.135 261.362C351.942 261.059 350.967 260.756 350.213 260.453C349.475 260.133 348.843 259.644 348.317 258.988C347.79 258.331 347.527 257.455 347.527 256.36C347.527 255.349 347.79 254.465 348.317 253.707C348.843 252.949 349.581 252.368 350.528 251.964C351.476 251.56 352.574 251.357 353.82 251.357C355.593 251.357 357.041 251.787 358.164 252.646C359.305 253.488 359.937 254.65 360.06 256.133H356.743C356.69 255.492 356.374 254.945 355.795 254.49C355.215 254.036 354.452 253.808 353.504 253.808C352.644 253.808 351.942 254.019 351.397 254.44C350.853 254.861 350.581 255.467 350.581 256.259C350.581 256.798 350.748 257.244 351.081 257.598C351.433 257.935 351.871 258.204 352.398 258.406C352.925 258.609 353.644 258.828 354.557 259.063C355.768 259.383 356.751 259.703 357.506 260.023C358.279 260.343 358.928 260.84 359.455 261.514C359.999 262.171 360.271 263.055 360.271 264.167C360.271 265.06 360.016 265.902 359.507 266.693C359.016 267.485 358.287 268.125 357.322 268.614C356.374 269.085 355.251 269.321 353.952 269.321Z" fill="#FAF8F5"/>
<path d="M239.139 147.379H245.279V149.914H236.16V130.759H239.139V147.379Z" fill="#FAF8F5"/>
<path d="M250.748 133.295V138.917H257.018V141.48H250.748V147.351H257.802V149.914H247.769V130.731H257.802V133.295H250.748Z" fill="#FAF8F5"/>
<path d="M272.418 146.001H264.815L263.509 149.914H260.4L266.905 130.731H270.354L276.86 149.914H273.725L272.418 146.001ZM271.582 143.437L268.63 134.535L265.651 143.437H271.582Z" fill="#FAF8F5"/>
<path d="M285.619 130.759C287.553 130.759 289.242 131.154 290.688 131.944C292.151 132.716 293.275 133.837 294.058 135.307C294.86 136.758 295.26 138.458 295.26 140.406C295.26 142.353 294.86 144.044 294.058 145.477C293.275 146.91 292.151 148.013 290.688 148.784C289.242 149.538 287.553 149.914 285.619 149.914H279.689V130.759H285.619ZM285.619 147.351C287.744 147.351 289.373 146.745 290.505 145.532C291.637 144.319 292.203 142.61 292.203 140.406C292.203 138.182 291.637 136.446 290.505 135.196C289.373 133.947 287.744 133.322 285.619 133.322H282.667V147.351H285.619Z" fill="#FAF8F5"/>
<path d="M301.191 133.295V138.917H307.461V141.48H301.191V147.351H308.245V149.914H298.212V130.731H308.245V133.295H301.191Z" fill="#FAF8F5"/>
<path d="M321.346 149.914L317.165 142.252H314.892V149.914H311.914V130.759H318.184C319.578 130.759 320.753 131.016 321.711 131.531C322.687 132.045 323.41 132.734 323.88 133.598C324.368 134.461 324.612 135.426 324.612 136.492C324.612 137.741 324.263 138.88 323.567 139.909C322.887 140.92 321.833 141.609 320.405 141.977L324.899 149.914H321.346ZM314.892 139.744H318.184C319.299 139.744 320.135 139.45 320.693 138.862C321.267 138.274 321.555 137.484 321.555 136.492C321.555 135.499 321.276 134.728 320.719 134.176C320.161 133.607 319.316 133.322 318.184 133.322H314.892V139.744Z" fill="#FAF8F5"/>
<path d="M334.405 150.107C333.186 150.107 332.088 149.887 331.113 149.446C330.138 148.987 329.371 148.343 328.814 147.517C328.256 146.69 327.978 145.725 327.978 144.623H331.165C331.235 145.449 331.54 146.129 332.08 146.662C332.637 147.195 333.412 147.461 334.405 147.461C335.433 147.461 336.234 147.204 336.809 146.69C337.384 146.157 337.671 145.477 337.671 144.65C337.671 144.007 337.488 143.483 337.122 143.079C336.774 142.675 336.33 142.362 335.79 142.142C335.267 141.921 334.536 141.683 333.595 141.425C332.411 141.095 331.444 140.764 330.695 140.433C329.963 140.084 329.336 139.551 328.814 138.834C328.291 138.118 328.03 137.162 328.03 135.968C328.03 134.866 328.291 133.901 328.814 133.074C329.336 132.247 330.068 131.613 331.008 131.172C331.949 130.731 333.038 130.511 334.274 130.511C336.034 130.511 337.471 130.979 338.585 131.916C339.718 132.835 340.345 134.103 340.467 135.72H337.175C337.122 135.022 336.809 134.425 336.234 133.928C335.659 133.432 334.901 133.184 333.961 133.184C333.107 133.184 332.411 133.414 331.871 133.873C331.331 134.333 331.061 134.994 331.061 135.858C331.061 136.446 331.226 136.933 331.557 137.319C331.906 137.686 332.341 137.98 332.864 138.201C333.386 138.421 334.1 138.66 335.006 138.917C336.208 139.266 337.183 139.615 337.932 139.965C338.699 140.314 339.343 140.856 339.866 141.591C340.406 142.307 340.676 143.272 340.676 144.485C340.676 145.459 340.423 146.377 339.918 147.241C339.43 148.105 338.707 148.803 337.749 149.336C336.809 149.85 335.694 150.107 334.405 150.107Z" fill="#FAF8F5"/>
<path d="M332.921 0.0575792C332.125 -0.169746 331.295 0.291764 331.067 1.08839L327.363 14.0702C327.136 14.8668 327.597 15.6969 328.394 15.9242C329.19 16.1515 330.02 15.69 330.248 14.8934L333.541 3.35403L345.08 6.6469C345.877 6.87423 346.707 6.41272 346.934 5.61609C347.161 4.81946 346.7 3.98938 345.903 3.76206L332.921 0.0575792ZM331.199 2.22889L566.358 425.19L568.98 423.732L333.821 0.771106L331.199 2.22889Z" fill="#3BD39D"/>
<path d="M4.45015 424.851C4.6658 425.651 5.48904 426.125 6.28891 425.909L19.3235 422.395C20.1234 422.179 20.597 421.356 20.3813 420.556C20.1657 419.756 19.3424 419.283 18.5425 419.498L6.95625 422.622L3.8325 411.036C3.61685 410.236 2.79361 409.762 1.99374 409.978C1.19388 410.194 0.720275 411.017 0.935926 411.817L4.45015 424.851ZM7.19863 425.209L250.524 2.24815L247.923 0.752171L4.59824 423.713L7.19863 425.209Z" fill="#3BD39D"/>
<path d="M103.124 490.305V517.544H98.6562V490.305H103.124Z" fill="#FAF8F5"/>
<path d="M131.37 517.544H126.902L113.458 497.203V517.544H108.99V490.266H113.458L126.902 510.568V490.266H131.37V517.544Z" fill="#FAF8F5"/>
<path d="M153.267 490.305V493.95H141.705V501.984H150.72V505.629H141.705V517.544H137.237V490.305H153.267Z" fill="#FAF8F5"/>
<path d="M169.832 517.819C167.298 517.819 164.959 517.231 162.817 516.055C160.7 514.853 159.015 513.194 157.761 511.077C156.533 508.935 155.919 506.531 155.919 503.866C155.919 501.201 156.533 498.81 157.761 496.693C159.015 494.577 160.7 492.931 162.817 491.755C164.959 490.553 167.298 489.952 169.832 489.952C172.393 489.952 174.731 490.553 176.848 491.755C178.99 492.931 180.676 494.577 181.904 496.693C183.132 498.81 183.746 501.201 183.746 503.866C183.746 506.531 183.132 508.935 181.904 511.077C180.676 513.194 178.99 514.853 176.848 516.055C174.731 517.231 172.393 517.819 169.832 517.819ZM169.832 513.938C171.635 513.938 173.242 513.533 174.653 512.723C176.064 511.887 177.161 510.712 177.945 509.196C178.755 507.654 179.16 505.878 179.16 503.866C179.16 501.854 178.755 500.09 177.945 498.575C177.161 497.059 176.064 495.896 174.653 495.086C173.242 494.276 171.635 493.871 169.832 493.871C168.029 493.871 166.422 494.276 165.011 495.086C163.6 495.896 162.49 497.059 161.68 498.575C160.896 500.09 160.504 501.854 160.504 503.866C160.504 505.878 160.896 507.654 161.68 509.196C162.49 510.712 163.6 511.887 165.011 512.723C166.422 513.533 168.029 513.938 169.832 513.938Z" fill="#FAF8F5"/>
<path d="M202.291 517.544L196.02 506.648H192.61V517.544H188.142V490.305H197.549C199.639 490.305 201.403 490.671 202.84 491.402C204.303 492.134 205.388 493.114 206.093 494.342C206.825 495.57 207.19 496.942 207.19 498.457C207.19 500.234 206.668 501.854 205.623 503.317C204.604 504.754 203.023 505.734 200.88 506.257L207.622 517.544H202.291ZM192.61 503.082H197.549C199.221 503.082 200.475 502.664 201.311 501.828C202.174 500.992 202.605 499.868 202.605 498.457C202.605 497.046 202.187 495.949 201.351 495.165C200.514 494.355 199.247 493.95 197.549 493.95H192.61V503.082Z" fill="#FAF8F5"/>
<path d="M241.596 490.305V517.544H237.128V498.888L228.819 517.544H225.722L217.374 498.888V517.544H212.906V490.305H217.727L227.29 511.665L236.814 490.305H241.596Z" fill="#FAF8F5"/>
<path d="M263.89 511.979H252.485L250.525 517.544H245.861L255.62 490.266H260.794L270.553 517.544H265.85L263.89 511.979ZM262.636 508.334L258.207 495.674L253.739 508.334H262.636Z" fill="#FAF8F5"/>
<path d="M292.394 490.305V493.95H285.143V517.544H280.675V493.95H273.385V490.305H292.394Z" fill="#FAF8F5"/>
<path d="M301.387 490.305V517.544H296.919V490.305H301.387Z" fill="#FAF8F5"/>
<path d="M319.678 517.819C317.143 517.819 314.805 517.231 312.662 516.055C310.546 514.853 308.86 513.194 307.606 511.077C306.378 508.935 305.764 506.531 305.764 503.866C305.764 501.201 306.378 498.81 307.606 496.693C308.86 494.577 310.546 492.931 312.662 491.755C314.805 490.553 317.143 489.952 319.678 489.952C322.238 489.952 324.577 490.553 326.693 491.755C328.836 492.931 330.521 494.577 331.749 496.693C332.977 498.81 333.591 501.201 333.591 503.866C333.591 506.531 332.977 508.935 331.749 511.077C330.521 513.194 328.836 514.853 326.693 516.055C324.577 517.231 322.238 517.819 319.678 517.819ZM319.678 513.938C321.48 513.938 323.087 513.533 324.498 512.723C325.909 511.887 327.007 510.712 327.791 509.196C328.601 507.654 329.006 505.878 329.006 503.866C329.006 501.854 328.601 500.09 327.791 498.575C327.007 497.059 325.909 495.896 324.498 495.086C323.087 494.276 321.48 493.871 319.678 493.871C317.875 493.871 316.268 494.276 314.857 495.086C313.446 495.896 312.335 497.059 311.525 498.575C310.741 500.09 310.35 501.854 310.35 503.866C310.35 505.878 310.741 507.654 311.525 509.196C312.335 510.712 313.446 511.887 314.857 512.723C316.268 513.533 317.875 513.938 319.678 513.938Z" fill="#FAF8F5"/>
<path d="M360.367 517.544H355.899L342.456 497.203V517.544H337.988V490.266H342.456L355.899 510.568V490.266H360.367V517.544Z" fill="#FAF8F5"/>
<path d="M392.446 490.305V493.95H380.884V501.984H389.898V505.629H380.884V517.544H376.416V490.305H392.446Z" fill="#FAF8F5"/>
<path d="M401.054 513.938H410.265V517.544H396.586V490.305H401.054V513.938Z" fill="#FAF8F5"/>
<path d="M426.426 517.819C423.891 517.819 421.553 517.231 419.41 516.055C417.294 514.853 415.608 513.194 414.354 511.077C413.126 508.935 412.512 506.531 412.512 503.866C412.512 501.201 413.126 498.81 414.354 496.693C415.608 494.577 417.294 492.931 419.41 491.755C421.553 490.553 423.891 489.952 426.426 489.952C428.986 489.952 431.325 490.553 433.441 491.755C435.584 492.931 437.269 494.577 438.497 496.693C439.725 498.81 440.339 501.201 440.339 503.866C440.339 506.531 439.725 508.935 438.497 511.077C437.269 513.194 435.584 514.853 433.441 516.055C431.325 517.231 428.986 517.819 426.426 517.819ZM426.426 513.938C428.229 513.938 429.835 513.533 431.246 512.723C432.657 511.887 433.755 510.712 434.539 509.196C435.349 507.654 435.754 505.878 435.754 503.866C435.754 501.854 435.349 500.09 434.539 498.575C433.755 497.059 432.657 495.896 431.246 495.086C429.835 494.276 428.229 493.871 426.426 493.871C424.623 493.871 423.016 494.276 421.605 495.086C420.194 495.896 419.083 497.059 418.273 498.575C417.49 500.09 417.098 501.854 417.098 503.866C417.098 505.878 417.49 507.654 418.273 509.196C419.083 510.712 420.194 511.887 421.605 512.723C423.016 513.533 424.623 513.938 426.426 513.938Z" fill="#FAF8F5"/>
<path d="M480.206 490.305L472.132 517.544H467.076L461.354 496.929L455.279 517.544L450.262 517.583L442.541 490.305H447.284L452.927 512.488L459.041 490.305H464.058L469.741 512.371L475.424 490.305H480.206Z" fill="#FAF8F5"/>
</svg>
